{"asset":{"version":"2.0","generator":"Microsoft GLTF Exporter 2.4.2.8"},"accessors":[{"bufferView":0,"componentType":5123,"count":36,"type":"SCALAR","byteOffset":0},{"bufferView":1,"componentType":5126,"count":24,"type":"VEC3","max":[110.96829223632812,285.98236083984375,110.96829223632812],"min":[-110.96829223632812,-285.98236083984375,-110.96829223632812],"byteOffset":0},{"bufferView":2,"componentType":5126,"count":24,"type":"VEC3","byteOffset":0},{"bufferView":3,"componentType":5126,"count":24,"type":"VEC2","byteOffset":0},{"bufferView":4,"componentType":5126,"count":24,"type":"VEC4","byteOffset":0}],"bufferViews":[{"buffer":0,"byteOffset":0,"byteLength":72,"target":34963},{"buffer":0,"byteOffset":72,"byteLength":288,"target":34962},{"buffer":0,"byteOffset":360,"byteLength":288,"target":34962},{"buffer":0,"byteOffset":648,"byteLength":192,"target":34962},{"buffer":0,"byteOffset":840,"byteLength":384,"target":34962},{"buffer":0,"byteOffset":1224,"byteLength":881607},{"buffer":0,"byteOffset":882831,"byteLength":60120},{"buffer":0,"byteOffset":942951,"byteLength":881607},{"buffer":0,"byteOffset":1824558,"byteLength":45284}],"buffers":[{"byteLength":1869844,"uri":"data:application/octet-stream;base64,"}],"images":[{"bufferView":5,"mimeType":"image/png"},{"bufferView":6,"mimeType":"image/png"},{"bufferView":7,"mimeType":"image/png"},{"bufferView":8,"mimeType":"image/png"}],"materials":[{"pbrMetallicRoughness":{"baseColorTexture":{"index":2},"metallicRoughnessTexture":{"index":3},"baseColorFactor":[1,1,1,1],"metallicFactor":1,"roughnessFactor":1},"name":"56","doubleSided":true,"extensions":{"KHR_materials_pbrSpecularGlossiness":{"diffuseTexture":{"index":0},"specularGlossinessTexture":{"index":1}}},"extras":{"MSFT_sRGBFactors":false},"emissiveFactor":[0,0,0],"alphaMode":"OPAQUE"}],"meshes":[{"name":"mesh_id33","primitives":[{"attributes":{"POSITION":1,"NORMAL":2,"TEXCOORD_0":3,"COLOR_0":4},"indices":0,"material":0,"mode":4}]}],"nodes":[{"translation":[0.0011176300467923284,0.033564455807209015,0.21274641156196594],"rotation":[0,-0.7071067094802856,0,0.7071068286895752],"scale":[0.0011097448877990246,0.0010000000474974513,0.0010704384185373783],"mesh":0},{"children":[0],"name":"root"}],"samplers":[{"minFilter":9985,"wrapS":10497,"wrapT":10497}],"scenes":[{"nodes":[1]}],"scene":0,"textures":[{"name":"texture351","sampler":0,"source":0},{"name":"texture355","sampler":0,"source":1},{"name":"56_bc","sampler":0,"source":2},{"name":"56_mr","sampler":0,"source":3}],"extensionsUsed":["KHR_materials_pbrSpecularGlossiness"]}
