<?xml version="1.0" encoding="UTF-8" standalone="no"?>
<!-- Generator: Adobe Illustrator 23.0.1, SVG Export Plug-In . SVG Version: 6.00 Build 0)  -->

<svg
   xmlns:dc="http://purl.org/dc/elements/1.1/"
   xmlns:cc="http://creativecommons.org/ns#"
   xmlns:rdf="http://www.w3.org/1999/02/22-rdf-syntax-ns#"
   xmlns:svg="http://www.w3.org/2000/svg"
   xmlns="http://www.w3.org/2000/svg"
   xmlns:sodipodi="http://sodipodi.sourceforge.net/DTD/sodipodi-0.dtd"
   xmlns:inkscape="http://www.inkscape.org/namespaces/inkscape"
   version="1.1"
   id="Calque_1"
   x="0px"
   y="0px"
   viewBox="0 0 1024 768"
   style="enable-background:new 0 0 1024 768;"
   xml:space="preserve"
   sodipodi:docname="img0.svg"
   inkscape:version="0.92.4 (5da689c313, 2019-01-14)"><metadata
   id="metadata4824"><rdf:RDF><cc:Work
       rdf:about=""><dc:format>image/svg+xml</dc:format><dc:type
         rdf:resource="http://purl.org/dc/dcmitype/StillImage" /></cc:Work></rdf:RDF></metadata><defs
   id="defs4822" /><sodipodi:namedview
   pagecolor="#ffffff"
   bordercolor="#666666"
   borderopacity="1"
   objecttolerance="10"
   gridtolerance="10"
   guidetolerance="10"
   inkscape:pageopacity="0"
   inkscape:pageshadow="2"
   inkscape:window-width="1366"
   inkscape:window-height="705"
   id="namedview4820"
   showgrid="false"
   inkscape:zoom="0.70052083"
   inkscape:cx="512"
   inkscape:cy="384"
   inkscape:window-x="-8"
   inkscape:window-y="-8"
   inkscape:window-maximized="1"
   inkscape:current-layer="Calque_1" />
<style
   type="text/css"
   id="style4455">
	.st0{fill:#084443;}
	.st1{fill:#FFFFFF;}
	.st2{fill:#00434C;}
	.st3{fill:#02473A;}
	.st4{fill:#00482F;}
	.st5{fill:#004055;}
</style>
<rect
   class="st5"
   width="1024"
   height="768"
   id="rect4457" />
<g
   id="g4817"
   transform="translate(2)">
	<g
   id="g4463">
		<path
   class="st1"
   d="m 115.33,163.2 c 0,-2.35 -1.91,-4.26 -4.26,-4.26 -2.35,0 -4.26,1.91 -4.26,4.26 0,2.35 1.91,4.26 4.26,4.26 2.35,0 4.26,-1.9 4.26,-4.26"
   id="path4459"
   inkscape:connector-curvature="0"
   style="fill:#ffffff" />
		<path
   class="st1"
   d="m 106.49,167.26 c 1.12,1.26 2.75,2.06 4.57,2.06 1.82,0 3.45,-0.8 4.57,-2.06 1.5,1.29 2.44,3.19 2.44,5.32 0,0.73 -0.03,1.5 -0.22,2.16 l -3.6,13.04 c -0.55,1.8 -1.43,3.2 -3.2,3.2 -1.77,0 -2.65,-1.4 -3.2,-3.2 l -3.6,-13.04 c -0.19,-0.67 -0.22,-1.44 -0.22,-2.16 0.01,-2.13 0.96,-4.04 2.46,-5.32"
   id="path4461"
   inkscape:connector-curvature="0"
   style="fill:#ffffff" />
	</g>
	<path
   class="st1"
   d="m 150.32,136.77 25.52,20.03 v 34.18 H 165.43 V 164.45 H 154.8 v 26.53 h -30 V 156.8 Z m -15.11,46.56 h 10.63 v -18.88 h -10.63 z"
   id="path4465"
   inkscape:connector-curvature="0"
   style="fill:#ffffff" />
	<path
   class="st1"
   d="M 207.89,207.56 H 71.99 V 57.41 H 207.9 v 150.15 z m -129.9,-6 H 201.9 V 63.41 H 77.99 Z"
   id="path4467"
   inkscape:connector-curvature="0"
   style="fill:#ffffff" />
	<g
   id="g4489">
		<path
   class="st1"
   d="m 574.84,162.9 c 0,-2.35 1.91,-4.26 4.26,-4.26 2.35,0 4.26,1.91 4.26,4.26 0,2.35 -1.91,4.26 -4.26,4.26 -2.36,0 -4.26,-1.91 -4.26,-4.26"
   id="path4469"
   inkscape:connector-curvature="0"
   style="fill:#ffffff" />
		<path
   class="st1"
   d="m 583.67,166.95 c -1.12,1.26 -2.75,2.06 -4.57,2.06 -1.82,0 -3.45,-0.8 -4.57,-2.06 -1.5,1.29 -2.45,3.19 -2.45,5.32 0,0.73 0.02,1.5 0.22,2.16 l 3.6,13.04 c 0.55,1.8 1.43,3.2 3.2,3.2 1.77,0 2.65,-1.4 3.2,-3.2 l 3.6,-13.04 c 0.19,-0.66 0.22,-1.44 0.22,-2.16 0,-2.12 -0.95,-4.03 -2.45,-5.32"
   id="path4471"
   inkscape:connector-curvature="0"
   style="fill:#ffffff" />
		<path
   class="st1"
   d="m 591.1,162.9 c 0,-2.35 1.91,-4.26 4.26,-4.26 2.35,0 4.26,1.91 4.26,4.26 0,2.35 -1.91,4.26 -4.26,4.26 -2.35,0 -4.26,-1.91 -4.26,-4.26"
   id="path4473"
   inkscape:connector-curvature="0"
   style="fill:#ffffff" />
		<path
   class="st1"
   d="m 599.94,166.95 c -1.12,1.26 -2.75,2.06 -4.57,2.06 -1.82,0 -3.45,-0.8 -4.57,-2.06 -1.5,1.29 -2.45,3.19 -2.45,5.32 0,0.73 0.02,1.5 0.22,2.16 l 3.6,13.04 c 0.55,1.8 1.43,3.2 3.2,3.2 1.77,0 2.65,-1.4 3.2,-3.2 l 3.6,-13.04 c 0.19,-0.66 0.22,-1.44 0.22,-2.16 0,-2.12 -0.95,-4.03 -2.45,-5.32"
   id="path4475"
   inkscape:connector-curvature="0"
   style="fill:#ffffff" />
		<path
   class="st1"
   d="m 582.97,123.52 c 0,-2.35 1.91,-4.26 4.26,-4.26 2.35,0 4.26,1.91 4.26,4.26 0,2.35 -1.91,4.26 -4.26,4.26 -2.35,0 -4.26,-1.9 -4.26,-4.26"
   id="path4477"
   inkscape:connector-curvature="0"
   style="fill:#ffffff" />
		<path
   class="st1"
   d="m 591.81,127.58 c -1.12,1.26 -2.75,2.06 -4.57,2.06 -1.82,0 -3.45,-0.8 -4.57,-2.06 -1.5,1.29 -2.45,3.19 -2.45,5.32 0,0.73 0.02,1.5 0.22,2.16 l 3.6,13.04 c 0.55,1.8 1.43,3.2 3.2,3.2 1.77,0 2.65,-1.4 3.2,-3.2 l 3.6,-13.04 c 0.19,-0.66 0.22,-1.44 0.22,-2.16 -0.01,-2.13 -0.96,-4.04 -2.45,-5.32"
   id="path4479"
   inkscape:connector-curvature="0"
   style="fill:#ffffff" />
		<path
   class="st1"
   d="m 599.24,123.52 c 0,-2.35 1.91,-4.26 4.26,-4.26 2.35,0 4.26,1.91 4.26,4.26 0,2.35 -1.91,4.26 -4.26,4.26 -2.35,0 -4.26,-1.9 -4.26,-4.26"
   id="path4481"
   inkscape:connector-curvature="0"
   style="fill:#ffffff" />
		<path
   class="st1"
   d="m 608.08,127.58 c -1.12,1.26 -2.75,2.06 -4.57,2.06 -1.82,0 -3.45,-0.8 -4.57,-2.06 -1.5,1.29 -2.45,3.19 -2.45,5.32 0,0.73 0.02,1.5 0.22,2.16 l 3.6,13.04 c 0.55,1.8 1.43,3.2 3.2,3.2 1.77,0 2.65,-1.4 3.2,-3.2 l 3.6,-13.04 c 0.19,-0.66 0.22,-1.44 0.22,-2.16 -0.01,-2.13 -0.96,-4.04 -2.45,-5.32"
   id="path4483"
   inkscape:connector-curvature="0"
   style="fill:#ffffff" />
		<path
   class="st1"
   d="m 607.37,162.9 c 0,-2.35 1.91,-4.26 4.26,-4.26 2.35,0 4.26,1.91 4.26,4.26 0,2.35 -1.91,4.26 -4.26,4.26 -2.35,0 -4.26,-1.91 -4.26,-4.26"
   id="path4485"
   inkscape:connector-curvature="0"
   style="fill:#ffffff" />
		<path
   class="st1"
   d="m 616.21,166.95 c -1.12,1.26 -2.75,2.06 -4.57,2.06 -1.82,0 -3.45,-0.8 -4.57,-2.06 -1.5,1.29 -2.45,3.19 -2.45,5.32 0,0.73 0.02,1.5 0.22,2.16 l 3.6,13.04 c 0.55,1.8 1.43,3.2 3.2,3.2 1.77,0 2.65,-1.4 3.2,-3.2 l 3.6,-13.04 c 0.19,-0.66 0.22,-1.44 0.22,-2.16 -0.01,-2.12 -0.95,-4.03 -2.45,-5.32"
   id="path4487"
   inkscape:connector-curvature="0"
   style="fill:#ffffff" />
	</g>
	<path
   class="st1"
   d="M 207.89,249.07 H 71.99 V 201.56 H 207.9 v 47.51 z m -129.9,-6 H 201.9 V 207.56 H 77.99 Z"
   id="path4491"
   inkscape:connector-curvature="0"
   style="fill:#ffffff" />
	<path
   class="st1"
   d="M 565.97,88.44 540.45,68.41 514.93,88.44 v 34.18 34.18 34.18 h 10.41 v -26.53 h 10.63 v 26.53 h 30 V 156.8 122.62 Z m -10.41,94.89 h -10.63 v -18.88 h 10.63 z m 0,-34.18 h -10.63 v -18.88 h 10.63 z m -19.59,0 h -10.63 v -18.88 h 10.63 z m 19.59,-34.18 H 544.93 V 96.1 h 10.63 z m -19.59,0 H 525.34 V 96.1 h 10.63 z"
   id="path4493"
   inkscape:connector-curvature="0"
   style="fill:#ffffff" />
	<path
   class="st1"
   d="M 503.46,207.56 H 201.89 v -47.51 h 301.57 z m -295.57,-6 H 497.46 V 166.05 H 207.89 Z m 144.53,-5.63 c -6.86,0 -12.44,-5.58 -12.44,-12.44 0,-6.86 5.58,-12.44 12.44,-12.44 6.86,0 12.44,5.58 12.44,12.44 -0.01,6.86 -5.59,12.44 -12.44,12.44 z m 0,-18.88 c -3.55,0 -6.44,2.89 -6.44,6.44 0,3.55 2.89,6.44 6.44,6.44 3.55,0 6.44,-2.89 6.44,-6.44 -0.01,-3.55 -2.89,-6.44 -6.44,-6.44 z m -53.08,18.88 c -6.86,0 -12.44,-5.58 -12.44,-12.44 0,-6.86 5.58,-12.44 12.44,-12.44 6.86,0 12.44,5.58 12.44,12.44 0,6.86 -5.58,12.44 -12.44,12.44 z m 0,-18.88 c -3.55,0 -6.44,2.89 -6.44,6.44 0,3.55 2.89,6.44 6.44,6.44 3.55,0 6.44,-2.89 6.44,-6.44 0,-3.55 -2.89,-6.44 -6.44,-6.44 z m -53.08,18.88 c -6.86,0 -12.44,-5.58 -12.44,-12.44 0,-6.86 5.58,-12.44 12.44,-12.44 6.86,0 12.44,5.58 12.44,12.44 0,6.86 -5.58,12.44 -12.44,12.44 z m 0,-18.88 c -3.55,0 -6.44,2.89 -6.44,6.44 0,3.55 2.89,6.44 6.44,6.44 3.55,0 6.44,-2.89 6.44,-6.44 0,-3.55 -2.89,-6.44 -6.44,-6.44 z"
   id="path4495"
   inkscape:connector-curvature="0"
   style="fill:#ffffff" />
	<path
   class="st1"
   d="m 458.57,195.93 c -6.86,0 -12.44,-5.58 -12.44,-12.44 0,-6.86 5.58,-12.44 12.44,-12.44 6.86,0 12.44,5.58 12.44,12.44 0,6.86 -5.58,12.44 -12.44,12.44 z m 0,-18.88 c -3.55,0 -6.44,2.89 -6.44,6.44 0,3.55 2.89,6.44 6.44,6.44 3.55,0 6.44,-2.89 6.44,-6.44 0,-3.55 -2.89,-6.44 -6.44,-6.44 z m -53.08,18.88 c -6.86,0 -12.44,-5.58 -12.44,-12.44 0,-6.86 5.58,-12.44 12.44,-12.44 6.86,0 12.44,5.58 12.44,12.44 0,6.86 -5.58,12.44 -12.44,12.44 z m 0,-18.88 c -3.55,0 -6.44,2.89 -6.44,6.44 0,3.55 2.89,6.44 6.44,6.44 3.55,0 6.44,-2.89 6.44,-6.44 0,-3.55 -2.89,-6.44 -6.44,-6.44 z"
   id="path4497"
   inkscape:connector-curvature="0"
   style="fill:#ffffff" />
	<path
   class="st1"
   d="M 633.26,447.31 H 71.99 V 399.8 h 561.28 v 47.51 z m -294.88,-6 H 627.27 V 405.8 H 338.38 Z m -260.39,0 H 332.38 V 405.8 H 77.99 Z m 298.75,-5.63 c -6.86,0 -12.44,-5.58 -12.44,-12.44 0,-6.86 5.58,-12.44 12.44,-12.44 6.86,0 12.44,5.58 12.44,12.44 0,6.86 -5.58,12.44 -12.44,12.44 z m 0,-18.88 c -3.55,0 -6.44,2.89 -6.44,6.44 0,3.55 2.89,6.44 6.44,6.44 3.55,0 6.44,-2.89 6.44,-6.44 0,-3.55 -2.89,-6.44 -6.44,-6.44 z m 212.31,-69.05 c -6.86,0 -12.44,-5.58 -12.44,-12.44 0,-6.86 5.58,-12.44 12.44,-12.44 6.86,0 12.44,5.58 12.44,12.44 0,6.86 -5.58,12.44 -12.44,12.44 z m 0,-18.88 c -3.55,0 -6.44,2.89 -6.44,6.44 0,3.55 2.89,6.44 6.44,6.44 3.55,0 6.44,-2.89 6.44,-6.44 0,-3.55 -2.89,-6.44 -6.44,-6.44 z m -53.08,18.88 c -6.86,0 -12.44,-5.58 -12.44,-12.44 0,-6.86 5.58,-12.44 12.44,-12.44 6.86,0 12.44,5.58 12.44,12.44 0,6.86 -5.58,12.44 -12.44,12.44 z m 0,-18.88 c -3.55,0 -6.44,2.89 -6.44,6.44 0,3.55 2.89,6.44 6.44,6.44 3.55,0 6.44,-2.89 6.44,-6.44 0,-3.55 -2.89,-6.44 -6.44,-6.44 z"
   id="path4499"
   inkscape:connector-curvature="0"
   style="fill:#ffffff" />
	<path
   class="st1"
   d="M 633.26,535.24 H 71.99 v -47.51 h 561.28 v 47.51 z m -294.88,-6 H 627.27 V 493.73 H 338.38 Z m -260.39,0 H 332.38 V 493.73 H 77.99 Z m 457.98,-5.63 c -6.86,0 -12.44,-5.58 -12.44,-12.44 0,-6.86 5.58,-12.44 12.44,-12.44 6.86,0 12.44,5.58 12.44,12.44 0,6.86 -5.58,12.44 -12.44,12.44 z m 0,-18.88 c -3.55,0 -6.44,2.89 -6.44,6.44 0,3.55 2.89,6.44 6.44,6.44 3.55,0 6.44,-2.89 6.44,-6.44 0,-3.55 -2.89,-6.44 -6.44,-6.44 z m -53.07,18.88 c -6.86,0 -12.44,-5.58 -12.44,-12.44 0,-6.86 5.58,-12.44 12.44,-12.44 6.86,0 12.44,5.58 12.44,12.44 -0.01,6.86 -5.58,12.44 -12.44,12.44 z m 0,-18.88 c -3.55,0 -6.44,2.89 -6.44,6.44 0,3.55 2.89,6.44 6.44,6.44 3.55,0 6.44,-2.89 6.44,-6.44 -0.01,-3.55 -2.89,-6.44 -6.44,-6.44 z m -53.08,18.88 c -6.86,0 -12.44,-5.58 -12.44,-12.44 0,-6.86 5.58,-12.44 12.44,-12.44 6.86,0 12.44,5.58 12.44,12.44 0,6.86 -5.58,12.44 -12.44,12.44 z m 0,-18.88 c -3.55,0 -6.44,2.89 -6.44,6.44 0,3.55 2.89,6.44 6.44,6.44 3.55,0 6.44,-2.89 6.44,-6.44 0,-3.55 -2.89,-6.44 -6.44,-6.44 z m -53.08,18.88 c -6.86,0 -12.44,-5.58 -12.44,-12.44 0,-6.86 5.58,-12.44 12.44,-12.44 6.86,0 12.44,5.58 12.44,12.44 0,6.86 -5.58,12.44 -12.44,12.44 z m 0,-18.88 c -3.55,0 -6.44,2.89 -6.44,6.44 0,3.55 2.89,6.44 6.44,6.44 3.55,0 6.44,-2.89 6.44,-6.44 0,-3.55 -2.89,-6.44 -6.44,-6.44 z m 212.31,-69.05 c -6.86,0 -12.44,-5.58 -12.44,-12.44 0,-6.86 5.58,-12.44 12.44,-12.44 6.86,0 12.44,5.58 12.44,12.44 0,6.86 -5.58,12.44 -12.44,12.44 z m 0,-18.88 c -3.55,0 -6.44,2.89 -6.44,6.44 0,3.55 2.89,6.44 6.44,6.44 3.55,0 6.44,-2.89 6.44,-6.44 0,-3.55 -2.89,-6.44 -6.44,-6.44 z m -53.08,18.88 c -6.86,0 -12.44,-5.58 -12.44,-12.44 0,-6.86 5.58,-12.44 12.44,-12.44 6.86,0 12.44,5.58 12.44,12.44 0,6.86 -5.58,12.44 -12.44,12.44 z m 0,-18.88 c -3.55,0 -6.44,2.89 -6.44,6.44 0,3.55 2.89,6.44 6.44,6.44 3.55,0 6.44,-2.89 6.44,-6.44 0,-3.55 -2.89,-6.44 -6.44,-6.44 z m -53.07,18.88 c -6.86,0 -12.44,-5.58 -12.44,-12.44 0,-6.86 5.58,-12.44 12.44,-12.44 6.86,0 12.44,5.58 12.44,12.44 0,6.86 -5.58,12.44 -12.44,12.44 z m 0,-18.88 c -3.55,0 -6.44,2.89 -6.44,6.44 0,3.55 2.89,6.44 6.44,6.44 3.55,0 6.44,-2.89 6.44,-6.44 0,-3.55 -2.89,-6.44 -6.44,-6.44 z m -53.08,18.88 c -6.86,0 -12.44,-5.58 -12.44,-12.44 0,-6.86 5.58,-12.44 12.44,-12.44 6.86,0 12.44,5.58 12.44,12.44 0,6.86 -5.58,12.44 -12.44,12.44 z m 0,-18.88 c -3.55,0 -6.44,2.89 -6.44,6.44 0,3.55 2.89,6.44 6.44,6.44 3.55,0 6.44,-2.89 6.44,-6.44 0,-3.55 -2.89,-6.44 -6.44,-6.44 z"
   id="path4501"
   inkscape:connector-curvature="0"
   style="fill:#ffffff" />
	<path
   class="st1"
   d="M 633.26,623.17 H 71.99 v -47.51 h 561.28 v 47.51 z m -294.88,-6 H 627.27 V 581.66 H 338.38 Z m -260.39,0 H 332.38 V 581.66 H 77.99 Z m 298.76,-5.63 c -6.86,0 -12.44,-5.58 -12.44,-12.44 0,-6.86 5.58,-12.44 12.44,-12.44 6.86,0 12.44,5.58 12.44,12.44 0,6.86 -5.59,12.44 -12.44,12.44 z m 0,-18.87 c -3.55,0 -6.44,2.89 -6.44,6.44 0,3.55 2.89,6.44 6.44,6.44 3.55,0 6.44,-2.89 6.44,-6.44 0,-3.55 -2.9,-6.44 -6.44,-6.44 z m 212.3,-69.06 c -6.86,0 -12.44,-5.58 -12.44,-12.44 0,-6.86 5.58,-12.44 12.44,-12.44 6.86,0 12.44,5.58 12.44,12.44 0,6.86 -5.58,12.44 -12.44,12.44 z m 0,-18.88 c -3.55,0 -6.44,2.89 -6.44,6.44 0,3.55 2.89,6.44 6.44,6.44 3.55,0 6.44,-2.89 6.44,-6.44 0,-3.55 -2.89,-6.44 -6.44,-6.44 z"
   id="path4503"
   inkscape:connector-curvature="0"
   style="fill:#ffffff" />
	<path
   class="st1"
   d="M 633.26,711.1 H 71.99 v -47.51 h 561.28 v 47.51 z m -294.88,-6 H 627.27 V 669.59 H 338.38 Z m -260.39,0 H 332.38 V 669.59 H 77.99 Z m 298.75,-5.62 c -6.86,0 -12.44,-5.58 -12.44,-12.44 0,-6.86 5.58,-12.44 12.44,-12.44 6.86,0 12.44,5.58 12.44,12.44 0,6.86 -5.58,12.44 -12.44,12.44 z m 0,-18.88 c -3.55,0 -6.44,2.89 -6.44,6.44 0,3.55 2.89,6.44 6.44,6.44 3.55,0 6.44,-2.89 6.44,-6.44 0,-3.55 -2.89,-6.44 -6.44,-6.44 z m 212.31,-69.06 c -6.86,0 -12.44,-5.58 -12.44,-12.44 0,-6.86 5.58,-12.44 12.44,-12.44 6.86,0 12.44,5.58 12.44,12.44 0,6.86 -5.58,12.44 -12.44,12.44 z m 0,-18.87 c -3.55,0 -6.44,2.89 -6.44,6.44 0,3.55 2.89,6.44 6.44,6.44 3.55,0 6.44,-2.89 6.44,-6.44 0,-3.55 -2.89,-6.44 -6.44,-6.44 z m -53.08,18.87 c -6.86,0 -12.44,-5.58 -12.44,-12.44 0,-6.86 5.58,-12.44 12.44,-12.44 6.86,0 12.44,5.58 12.44,12.44 0,6.86 -5.58,12.44 -12.44,12.44 z m 0,-18.87 c -3.55,0 -6.44,2.89 -6.44,6.44 0,3.55 2.89,6.44 6.44,6.44 3.55,0 6.44,-2.89 6.44,-6.44 0,-3.55 -2.89,-6.44 -6.44,-6.44 z m -53.07,18.87 c -6.86,0 -12.44,-5.58 -12.44,-12.44 0,-6.86 5.58,-12.44 12.44,-12.44 6.86,0 12.44,5.58 12.44,12.44 0,6.86 -5.58,12.44 -12.44,12.44 z m 0,-18.87 c -3.55,0 -6.44,2.89 -6.44,6.44 0,3.55 2.89,6.44 6.44,6.44 3.55,0 6.44,-2.89 6.44,-6.44 0,-3.55 -2.89,-6.44 -6.44,-6.44 z m -53.08,18.87 c -6.86,0 -12.44,-5.58 -12.44,-12.44 0,-6.86 5.58,-12.44 12.44,-12.44 6.86,0 12.44,5.58 12.44,12.44 0,6.86 -5.58,12.44 -12.44,12.44 z m 0,-18.87 c -3.55,0 -6.44,2.89 -6.44,6.44 0,3.55 2.89,6.44 6.44,6.44 3.55,0 6.44,-2.89 6.44,-6.44 0,-3.55 -2.89,-6.44 -6.44,-6.44 z"
   id="path4505"
   inkscape:connector-curvature="0"
   style="fill:#ffffff" />
	<path
   class="st1"
   d="m 589.05,699.48 c -6.86,0 -12.44,-5.58 -12.44,-12.44 0,-6.86 5.58,-12.44 12.44,-12.44 6.86,0 12.44,5.58 12.44,12.44 0,6.86 -5.58,12.44 -12.44,12.44 z m 0,-18.88 c -3.55,0 -6.44,2.89 -6.44,6.44 0,3.55 2.89,6.44 6.44,6.44 3.55,0 6.44,-2.89 6.44,-6.44 0,-3.55 -2.89,-6.44 -6.44,-6.44 z m -53.08,18.88 c -6.86,0 -12.44,-5.58 -12.44,-12.44 0,-6.86 5.58,-12.44 12.44,-12.44 6.86,0 12.44,5.58 12.44,12.44 0,6.86 -5.58,12.44 -12.44,12.44 z m 0,-18.88 c -3.55,0 -6.44,2.89 -6.44,6.44 0,3.55 2.89,6.44 6.44,6.44 3.55,0 6.44,-2.89 6.44,-6.44 0,-3.55 -2.89,-6.44 -6.44,-6.44 z m -53.07,18.88 c -6.86,0 -12.44,-5.58 -12.44,-12.44 0,-6.86 5.58,-12.44 12.44,-12.44 6.86,0 12.44,5.58 12.44,12.44 0,6.86 -5.58,12.44 -12.44,12.44 z m 0,-18.88 c -3.55,0 -6.44,2.89 -6.44,6.44 0,3.55 2.89,6.44 6.44,6.44 3.55,0 6.44,-2.89 6.44,-6.44 0,-3.55 -2.89,-6.44 -6.44,-6.44 z m -53.08,18.88 c -6.86,0 -12.44,-5.58 -12.44,-12.44 0,-6.86 5.58,-12.44 12.44,-12.44 6.86,0 12.44,5.58 12.44,12.44 0,6.86 -5.58,12.44 -12.44,12.44 z m 0,-18.88 c -3.55,0 -6.44,2.89 -6.44,6.44 0,3.55 2.89,6.44 6.44,6.44 3.55,0 6.44,-2.89 6.44,-6.44 0,-3.55 -2.89,-6.44 -6.44,-6.44 z"
   id="path4507"
   inkscape:connector-curvature="0"
   style="fill:#ffffff" />
	<path
   class="st1"
   d="m 97.21,333.88 c 0.32,-0.36 0.48,-0.88 0.48,-1.57 0,-0.68 -0.21,-1.17 -0.62,-1.46 -0.41,-0.29 -1.06,-0.43 -1.93,-0.43 h -1.51 v 3.99 h 1.78 c 0.89,0.01 1.49,-0.17 1.8,-0.53 m 1.95,-4.67 c 0.83,0.71 1.25,1.8 1.25,3.26 0,1.47 -0.43,2.54 -1.28,3.22 -0.86,0.68 -2.16,1.02 -3.92,1.02 h -1.58 v 3.32 h -2.65 v -11.88 h 4.2 c 1.82,0 3.15,0.35 3.98,1.06"
   id="path4509"
   inkscape:connector-curvature="0"
   style="fill:#ffffff" />
	<path
   class="st1"
   d="m 111.58,334.02 c 0,-1.06 -0.34,-1.96 -1.02,-2.71 -0.68,-0.75 -1.52,-1.12 -2.51,-1.12 -0.99,0 -1.83,0.37 -2.51,1.12 -0.68,0.75 -1.02,1.65 -1.02,2.71 0,1.06 0.34,1.96 1.02,2.7 0.68,0.74 1.52,1.11 2.51,1.11 0.99,0 1.83,-0.37 2.51,-1.11 0.68,-0.74 1.02,-1.64 1.02,-2.7 m 0.9,4.37 c -1.2,1.17 -2.68,1.76 -4.44,1.76 -1.76,0 -3.24,-0.59 -4.44,-1.76 -1.2,-1.17 -1.8,-2.63 -1.8,-4.38 0,-1.75 0.6,-3.2 1.8,-4.38 1.2,-1.17 2.68,-1.76 4.44,-1.76 1.76,0 3.24,0.59 4.44,1.76 1.2,1.17 1.8,2.63 1.8,4.38 0,1.75 -0.6,3.21 -1.8,4.38"
   id="path4511"
   inkscape:connector-curvature="0"
   style="fill:#ffffff" />
	<polygon
   class="st1"
   points="119.18,337.67 124.24,337.67 124.24,340.03 116.52,340.03 116.52,328.15 119.18,328.15 "
   id="polygon4513"
   style="fill:#ffffff" />
	<polygon
   class="st1"
   points="128.83,337.67 133.9,337.67 133.9,340.03 126.18,340.03 126.18,328.15 128.83,328.15 "
   id="polygon4515"
   style="fill:#ffffff" />
	<g
   id="g4519">
		<path
   class="st1"
   d="m 138.73,336.96 c 0.44,0.55 1.04,0.82 1.78,0.82 0.75,0 1.34,-0.27 1.78,-0.82 0.43,-0.55 0.65,-1.3 0.65,-2.25 v -6.56 h 2.65 v 6.65 c 0,1.72 -0.48,3.05 -1.43,3.97 -0.95,0.92 -2.17,1.39 -3.65,1.39 -1.48,0 -2.7,-0.46 -3.66,-1.39 -0.96,-0.93 -1.44,-2.25 -1.44,-3.96 v -6.65 h 2.65 v 6.56 c 0,0.94 0.23,1.69 0.67,2.24"
   id="path4517"
   inkscape:connector-curvature="0"
   style="fill:#ffffff" />
	</g>
	<polygon
   class="st1"
   points="150.73,330.44 147.36,330.44 147.36,328.15 156.75,328.15 156.75,330.44 153.38,330.44 153.38,340.03 150.73,340.03 "
   id="polygon4521"
   style="fill:#ffffff" />
	<rect
   x="158.67999"
   y="328.14999"
   class="st1"
   width="2.6500001"
   height="11.88"
   id="rect4523"
   style="fill:#ffffff" />
	<g
   id="g4527">
		<path
   class="st1"
   d="m 173.36,334.02 c 0,-1.06 -0.34,-1.96 -1.02,-2.71 -0.68,-0.75 -1.52,-1.12 -2.51,-1.12 -0.99,0 -1.83,0.37 -2.51,1.12 -0.68,0.75 -1.02,1.65 -1.02,2.71 0,1.06 0.34,1.96 1.02,2.7 0.68,0.74 1.52,1.11 2.51,1.11 0.99,0 1.83,-0.37 2.51,-1.11 0.68,-0.74 1.02,-1.64 1.02,-2.7 m 0.9,4.37 c -1.2,1.17 -2.68,1.76 -4.44,1.76 -1.76,0 -3.24,-0.59 -4.44,-1.76 -1.2,-1.17 -1.8,-2.63 -1.8,-4.38 0,-1.75 0.6,-3.2 1.8,-4.38 1.2,-1.18 2.68,-1.76 4.44,-1.76 1.76,0 3.24,0.59 4.44,1.76 1.2,1.17 1.8,2.63 1.8,4.38 0,1.75 -0.6,3.21 -1.8,4.38"
   id="path4525"
   inkscape:connector-curvature="0"
   style="fill:#ffffff" />
	</g>
	<polygon
   class="st1"
   points="186.62,340.03 180.96,332.58 180.96,340.03 178.3,340.03 178.3,328.15 180.79,328.15 186.62,335.8 186.62,328.15 189.27,328.15 189.27,340.03 "
   id="polygon4529"
   style="fill:#ffffff" />
	<g
   id="g4535">
		<path
   class="st1"
   d="m 199.46,330.52 c -0.26,0.21 -0.38,0.49 -0.38,0.83 0,0.35 0.15,0.62 0.47,0.83 0.31,0.2 1.03,0.45 2.16,0.72 1.13,0.28 2,0.69 2.63,1.25 0.62,0.56 0.94,1.37 0.94,2.43 0,1.07 -0.4,1.93 -1.2,2.59 -0.8,0.66 -1.85,0.99 -3.15,0.99 -1.88,0 -3.58,-0.7 -5.08,-2.09 l 1.58,-1.94 c 1.28,1.12 2.46,1.68 3.55,1.68 0.49,0 0.87,-0.1 1.15,-0.31 0.28,-0.21 0.42,-0.49 0.42,-0.85 0,-0.36 -0.15,-0.64 -0.44,-0.85 -0.3,-0.21 -0.88,-0.42 -1.75,-0.64 -1.38,-0.33 -2.4,-0.76 -3.04,-1.28 -0.64,-0.53 -0.96,-1.35 -0.96,-2.48 0,-1.13 0.4,-2 1.22,-2.61 0.81,-0.61 1.82,-0.92 3.03,-0.92 0.79,0 1.59,0.14 2.38,0.41 0.79,0.27 1.48,0.66 2.07,1.16 l -1.34,1.94 c -1.03,-0.78 -2.1,-1.17 -3.2,-1.17 -0.46,-0.01 -0.81,0.1 -1.06,0.31"
   id="path4531"
   inkscape:connector-curvature="0"
   style="fill:#ffffff" />
		<path
   class="st1"
   d="m 216.62,334.02 c 0,-1.06 -0.34,-1.96 -1.02,-2.71 -0.68,-0.75 -1.52,-1.12 -2.51,-1.12 -0.99,0 -1.83,0.37 -2.51,1.12 -0.68,0.75 -1.02,1.65 -1.02,2.71 0,1.06 0.34,1.96 1.02,2.7 0.68,0.74 1.52,1.11 2.51,1.11 0.99,0 1.83,-0.37 2.51,-1.11 0.68,-0.74 1.02,-1.64 1.02,-2.7 m 0.9,4.37 c -1.2,1.17 -2.68,1.76 -4.44,1.76 -1.76,0 -3.24,-0.59 -4.44,-1.76 -1.2,-1.17 -1.8,-2.63 -1.8,-4.38 0,-1.75 0.6,-3.2 1.8,-4.38 1.2,-1.18 2.68,-1.76 4.44,-1.76 1.76,0 3.24,0.59 4.44,1.76 1.2,1.17 1.8,2.63 1.8,4.38 0,1.75 -0.6,3.21 -1.8,4.38"
   id="path4533"
   inkscape:connector-curvature="0"
   style="fill:#ffffff" />
	</g>
	<polygon
   class="st1"
   points="229.88,340.03 224.22,332.58 224.22,340.03 221.57,340.03 221.57,328.15 224.05,328.15 229.88,335.8 229.88,328.15 232.53,328.15 232.53,340.03 "
   id="polygon4537"
   style="fill:#ffffff" />
	<g
   id="g4543">
		<path
   class="st1"
   d="m 244.55,334.02 c 0,-1.06 -0.34,-1.96 -1.02,-2.71 -0.68,-0.75 -1.52,-1.12 -2.51,-1.12 -0.99,0 -1.83,0.37 -2.51,1.12 -0.68,0.75 -1.02,1.65 -1.02,2.71 0,1.06 0.34,1.96 1.02,2.7 0.68,0.74 1.52,1.11 2.51,1.11 0.99,0 1.83,-0.37 2.51,-1.11 0.68,-0.74 1.02,-1.64 1.02,-2.7 m 0.9,4.37 c -1.2,1.17 -2.68,1.76 -4.44,1.76 -1.76,0 -3.24,-0.59 -4.44,-1.76 -1.2,-1.17 -1.8,-2.63 -1.8,-4.38 0,-1.75 0.6,-3.2 1.8,-4.38 1.2,-1.18 2.68,-1.76 4.44,-1.76 1.76,0 3.24,0.59 4.44,1.76 1.2,1.17 1.8,2.63 1.8,4.38 0,1.75 -0.6,3.21 -1.8,4.38"
   id="path4539"
   inkscape:connector-curvature="0"
   style="fill:#ffffff" />
		<path
   class="st1"
   d="m 255.94,333.5 c 0.33,-0.29 0.49,-0.76 0.49,-1.4 0,-0.64 -0.17,-1.08 -0.51,-1.32 -0.34,-0.24 -0.93,-0.36 -1.78,-0.36 h -1.99 v 3.52 h 1.94 c 0.9,0 1.52,-0.14 1.85,-0.44 m 3.2,-1.41 c 0,1.9 -0.75,3.14 -2.26,3.69 l 3.01,4.25 h -3.26 L 254,336.24 h -1.84 v 3.79 h -2.65 V 328.15 H 254 c 1.85,0 3.17,0.31 3.95,0.93 0.79,0.62 1.19,1.63 1.19,3.01"
   id="path4541"
   inkscape:connector-curvature="0"
   style="fill:#ffffff" />
	</g>
	<polygon
   class="st1"
   points="264.51,332.96 269.83,332.96 269.83,335.22 264.51,335.22 264.51,337.68 270.61,337.68 270.61,340.03 261.86,340.03 261.86,328.15 270.42,328.15 270.42,330.51 264.51,330.51 "
   id="polygon4545"
   style="fill:#ffffff" />
	<rect
   x="90.389999"
   y="217.84"
   class="st1"
   width="2.6500001"
   height="11.88"
   id="rect4547"
   style="fill:#ffffff" />
	<polygon
   class="st1"
   points="104.28,229.72 98.62,222.28 98.62,229.72 95.96,229.72 95.96,217.84 98.45,217.84 104.28,225.49 104.28,217.84 106.93,217.84 106.93,229.72 "
   id="polygon4549"
   style="fill:#ffffff" />
	<g
   id="g4553">
		<path
   class="st1"
   d="m 116.98,226.46 c 0.65,-0.61 0.98,-1.5 0.98,-2.67 0,-1.17 -0.33,-2.07 -0.98,-2.7 -0.65,-0.63 -1.65,-0.94 -3,-0.94 h -1.48 v 7.22 h 1.68 c 1.22,0.01 2.15,-0.3 2.8,-0.91 m 1.95,-7.06 c 1.13,1.04 1.7,2.48 1.7,4.33 0,1.85 -0.55,3.31 -1.66,4.39 -1.1,1.08 -2.79,1.61 -5.06,1.61 h -4.06 v -11.88 h 4.2 c 2.12,-0.01 3.75,0.51 4.88,1.55"
   id="path4551"
   inkscape:connector-curvature="0"
   style="fill:#ffffff" />
	</g>
	<rect
   x="122.93"
   y="217.84"
   class="st1"
   width="2.6500001"
   height="11.88"
   id="rect4555"
   style="fill:#ffffff" />
	<polygon
   class="st1"
   points="134.01,229.72 131.77,229.72 126.99,217.84 129.86,217.84 132.89,225.41 135.91,217.84 138.79,217.84 "
   id="polygon4557"
   style="fill:#ffffff" />
	<rect
   x="140.2"
   y="217.84"
   class="st1"
   width="2.6500001"
   height="11.88"
   id="rect4559"
   style="fill:#ffffff" />
	<g
   id="g4565">
		<path
   class="st1"
   d="m 152.91,226.46 c 0.65,-0.61 0.98,-1.5 0.98,-2.67 0,-1.17 -0.33,-2.07 -0.98,-2.7 -0.65,-0.63 -1.65,-0.94 -3,-0.94 h -1.48 v 7.22 h 1.68 c 1.21,0.01 2.14,-0.3 2.8,-0.91 m 1.94,-7.06 c 1.13,1.04 1.7,2.48 1.7,4.33 0,1.85 -0.55,3.31 -1.66,4.39 -1.1,1.08 -2.79,1.61 -5.06,1.61 h -4.06 v -11.88 h 4.2 c 2.12,-0.01 3.75,0.51 4.88,1.55"
   id="path4561"
   inkscape:connector-curvature="0"
   style="fill:#ffffff" />
		<path
   class="st1"
   d="m 161.99,226.66 c 0.44,0.55 1.04,0.82 1.78,0.82 0.74,0 1.34,-0.27 1.78,-0.82 0.43,-0.55 0.65,-1.3 0.65,-2.25 v -6.56 h 2.65 v 6.65 c 0,1.72 -0.47,3.05 -1.43,3.97 -0.95,0.92 -2.17,1.39 -3.65,1.39 -1.48,0 -2.71,-0.47 -3.66,-1.4 -0.96,-0.93 -1.44,-2.25 -1.44,-3.96 v -6.65 h 2.65 v 6.56 c 0.01,0.94 0.23,1.7 0.67,2.25"
   id="path4563"
   inkscape:connector-curvature="0"
   style="fill:#ffffff" />
	</g>
	<polygon
   class="st1"
   points="174.27,222.65 179.59,222.65 179.59,224.91 174.27,224.91 174.27,227.38 180.37,227.38 180.37,229.72 171.61,229.72 171.61,217.84 180.18,217.84 180.18,220.2 174.27,220.2 "
   id="polygon4567"
   style="fill:#ffffff" />
	<polygon
   class="st1"
   points="185.38,227.36 190.45,227.36 190.45,229.72 182.73,229.72 182.73,217.84 185.38,217.84 "
   id="polygon4569"
   style="fill:#ffffff" />
	<g
   id="g4575">
		<path
   class="st1"
   d="m 521.88,227.38 c 1.3,0 2.37,-0.52 3.2,-1.55 l 1.7,1.75 c -1.35,1.52 -2.94,2.28 -4.77,2.28 -1.83,0 -3.34,-0.58 -4.52,-1.73 -1.18,-1.16 -1.78,-2.61 -1.78,-4.38 0,-1.76 0.6,-3.23 1.81,-4.41 1.21,-1.18 2.68,-1.77 4.43,-1.77 1.95,0 3.58,0.74 4.9,2.23 l -1.65,1.87 c -0.84,-1.04 -1.88,-1.56 -3.13,-1.56 -1,0 -1.85,0.33 -2.56,0.98 -0.71,0.65 -1.06,1.53 -1.06,2.64 0,1.1 0.33,1.99 1,2.66 0.66,0.65 1.47,0.99 2.43,0.99"
   id="path4571"
   inkscape:connector-curvature="0"
   style="fill:#ffffff" />
		<path
   class="st1"
   d="m 537.7,223.71 c 0,-1.06 -0.34,-1.96 -1.02,-2.71 -0.68,-0.75 -1.52,-1.12 -2.51,-1.12 -0.99,0 -1.83,0.37 -2.51,1.12 -0.68,0.75 -1.02,1.65 -1.02,2.71 0,1.06 0.34,1.96 1.02,2.7 0.68,0.74 1.52,1.11 2.51,1.11 0.99,0 1.83,-0.37 2.51,-1.11 0.68,-0.74 1.02,-1.64 1.02,-2.7 m 0.9,4.37 c -1.2,1.17 -2.68,1.76 -4.44,1.76 -1.76,0 -3.24,-0.59 -4.44,-1.76 -1.2,-1.17 -1.8,-2.63 -1.8,-4.38 0,-1.75 0.6,-3.21 1.8,-4.38 1.2,-1.17 2.68,-1.76 4.44,-1.76 1.76,0 3.24,0.59 4.44,1.76 1.2,1.17 1.8,2.63 1.8,4.38 0,1.75 -0.6,3.21 -1.8,4.38"
   id="path4573"
   inkscape:connector-curvature="0"
   style="fill:#ffffff" />
	</g>
	<polygon
   class="st1"
   points="545.3,227.36 550.37,227.36 550.37,229.72 542.65,229.72 542.65,217.84 545.3,217.84 "
   id="polygon4577"
   style="fill:#ffffff" />
	<polygon
   class="st1"
   points="554.96,227.36 560.02,227.36 560.02,229.72 552.31,229.72 552.31,217.84 554.96,217.84 "
   id="polygon4579"
   style="fill:#ffffff" />
	<polygon
   class="st1"
   points="564.61,222.65 569.93,222.65 569.93,224.91 564.61,224.91 564.61,227.38 570.72,227.38 570.72,229.72 561.96,229.72 561.96,217.84 570.53,217.84 570.53,220.2 564.61,220.2 "
   id="polygon4581"
   style="fill:#ffffff" />
	<g
   id="g4585">
		<path
   class="st1"
   d="m 578.54,227.38 c 1.3,0 2.37,-0.52 3.2,-1.55 l 1.7,1.75 c -1.35,1.52 -2.94,2.28 -4.77,2.28 -1.83,0 -3.34,-0.58 -4.52,-1.73 -1.18,-1.16 -1.78,-2.61 -1.78,-4.38 0,-1.76 0.6,-3.23 1.81,-4.41 1.21,-1.18 2.68,-1.77 4.43,-1.77 1.95,0 3.58,0.74 4.9,2.23 l -1.65,1.87 c -0.84,-1.04 -1.88,-1.56 -3.13,-1.56 -1,0 -1.85,0.33 -2.56,0.98 -0.71,0.65 -1.06,1.53 -1.06,2.64 0,1.1 0.33,1.99 1,2.66 0.66,0.65 1.48,0.99 2.43,0.99"
   id="path4583"
   inkscape:connector-curvature="0"
   style="fill:#ffffff" />
	</g>
	<polygon
   class="st1"
   points="587.9,220.14 584.54,220.14 584.54,217.84 593.92,217.84 593.92,220.14 590.56,220.14 590.56,229.72 587.9,229.72 "
   id="polygon4587"
   style="fill:#ffffff" />
	<rect
   x="595.85999"
   y="217.84"
   class="st1"
   width="2.6500001"
   height="11.88"
   id="rect4589"
   style="fill:#ffffff" />
	<polygon
   class="st1"
   points="604.09,222.74 609.32,222.74 609.32,225.07 604.09,225.07 604.09,229.72 601.44,229.72 601.44,217.84 609.6,217.84 609.6,220.17 604.09,220.17 "
   id="polygon4591"
   style="fill:#ffffff" />
	<polygon
   class="st1"
   points="93.35,418.37 89.99,418.37 89.99,416.08 99.37,416.08 99.37,418.37 96.01,418.37 96.01,427.96 93.35,427.96 "
   id="polygon4593"
   style="fill:#ffffff" />
	<path
   class="st1"
   d="m 105.32,419.61 -1.5,3.45 h 2.98 z m 3.59,8.35 -1.1,-2.57 h -4.98 l -1.1,2.57 H 98.9 l 5.13,-11.88 h 2.57 l 5.13,11.88 z"
   id="path4595"
   inkscape:connector-curvature="0"
   style="fill:#ffffff" />
	<g
   id="g4599">
		<path
   class="st1"
   d="m 115.93,424.89 c 0.44,0.55 1.04,0.82 1.78,0.82 0.74,0 1.34,-0.27 1.78,-0.82 0.43,-0.55 0.65,-1.3 0.65,-2.25 v -6.56 h 2.65 v 6.65 c 0,1.72 -0.47,3.05 -1.43,3.97 -0.95,0.92 -2.17,1.39 -3.65,1.39 -1.48,0 -2.71,-0.46 -3.66,-1.39 -0.96,-0.93 -1.44,-2.25 -1.44,-3.96 v -6.65 h 2.65 v 6.56 c 0.01,0.94 0.23,1.69 0.67,2.24"
   id="path4597"
   inkscape:connector-curvature="0"
   style="fill:#ffffff" />
	</g>
	<polygon
   class="st1"
   points="135.73,427.96 132.5,427.96 129.97,424.05 127.46,427.96 124.26,427.96 128.25,421.88 124.53,416.08 127.71,416.08 129.97,419.6 132.23,416.08 135.43,416.08 131.72,421.81 "
   id="polygon4601"
   style="fill:#ffffff" />
	<g
   id="g4607">
		<path
   class="st1"
   d="m 148.99,424.7 c 0.65,-0.61 0.98,-1.5 0.98,-2.67 0,-1.17 -0.33,-2.07 -0.98,-2.7 -0.65,-0.63 -1.65,-0.94 -3,-0.94 h -1.48 v 7.23 h 1.68 c 1.21,0 2.14,-0.31 2.8,-0.92 m 1.94,-7.07 c 1.13,1.04 1.7,2.48 1.7,4.33 0,1.85 -0.55,3.31 -1.66,4.39 -1.1,1.08 -2.79,1.62 -5.06,1.62 h -4.06 v -11.88 h 4.2 c 2.12,-0.01 3.75,0.51 4.88,1.54"
   id="path4603"
   inkscape:connector-curvature="0"
   style="fill:#ffffff" />
		<path
   class="st1"
   d="m 154.69,418.56 c -0.37,-0.25 -0.56,-0.6 -0.56,-1.04 0,-0.45 0.13,-0.8 0.4,-1.06 0.27,-0.26 0.6,-0.39 1,-0.39 0.4,0 0.74,0.12 1,0.37 0.27,0.25 0.4,0.57 0.4,0.97 0,0.4 -0.12,0.79 -0.37,1.17 l -1.24,1.8 h -1.39 z"
   id="path4605"
   inkscape:connector-curvature="0"
   style="fill:#ffffff" />
	</g>
	<polygon
   class="st1"
   points="161.66,420.89 166.98,420.89 166.98,423.15 161.66,423.15 161.66,425.62 167.76,425.62 167.76,427.96 159.01,427.96 159.01,416.08 167.58,416.08 167.58,418.44 161.66,418.44 "
   id="polygon4609"
   style="fill:#ffffff" />
	<polygon
   class="st1"
   points="172.78,420.48 172.78,427.96 170.13,427.96 170.13,416.08 173.71,416.08 176.77,422.61 179.85,416.08 183.42,416.08 183.42,427.96 180.77,427.96 180.77,420.48 177.55,426.98 175.97,426.98 "
   id="polygon4611"
   style="fill:#ffffff" />
	<g
   id="g4619">
		<path
   class="st1"
   d="m 189,425.72 h 1.82 c 0.76,0 1.33,-0.09 1.71,-0.28 0.38,-0.19 0.57,-0.56 0.57,-1.11 0,-0.55 -0.2,-0.91 -0.6,-1.09 -0.4,-0.18 -1.05,-0.26 -1.93,-0.26 H 189 Z m 0,-4.83 h 1.26 c 0.74,0 1.28,-0.08 1.64,-0.24 0.36,-0.16 0.53,-0.5 0.53,-1.03 0,-0.53 -0.16,-0.88 -0.49,-1.04 -0.33,-0.17 -0.88,-0.26 -1.67,-0.26 H 189 Z m 2.55,7.07 h -5.2 v -11.88 h 4.62 c 0.8,0 1.5,0.1 2.08,0.29 0.58,0.19 1.02,0.45 1.32,0.78 0.53,0.61 0.8,1.3 0.8,2.07 0,0.93 -0.3,1.62 -0.9,2.07 -0.2,0.16 -0.35,0.26 -0.42,0.3 -0.08,0.04 -0.22,0.1 -0.43,0.2 0.74,0.16 1.32,0.49 1.76,0.99 0.43,0.5 0.65,1.13 0.65,1.88 0,0.83 -0.28,1.56 -0.85,2.19 -0.66,0.74 -1.8,1.11 -3.43,1.11"
   id="path4613"
   inkscape:connector-curvature="0"
   style="fill:#ffffff" />
		<path
   class="st1"
   d="m 207.15,421.95 c 0,-1.06 -0.34,-1.96 -1.02,-2.71 -0.68,-0.75 -1.52,-1.12 -2.51,-1.12 -0.99,0 -1.83,0.37 -2.51,1.12 -0.68,0.75 -1.02,1.65 -1.02,2.71 0,1.06 0.34,1.96 1.02,2.7 0.68,0.74 1.52,1.11 2.51,1.11 0.99,0 1.83,-0.37 2.51,-1.11 0.68,-0.74 1.02,-1.64 1.02,-2.7 m 0.9,4.37 c -1.2,1.17 -2.68,1.76 -4.44,1.76 -1.76,0 -3.24,-0.59 -4.44,-1.76 -1.2,-1.17 -1.8,-2.63 -1.8,-4.38 0,-1.75 0.6,-3.2 1.8,-4.38 1.2,-1.18 2.68,-1.76 4.44,-1.76 1.76,0 3.24,0.59 4.44,1.76 1.2,1.17 1.8,2.63 1.8,4.38 0,1.75 -0.6,3.21 -1.8,4.38"
   id="path4615"
   inkscape:connector-curvature="0"
   style="fill:#ffffff" />
		<path
   class="st1"
   d="m 215.24,424.89 c 0.44,0.55 1.04,0.82 1.78,0.82 0.74,0 1.34,-0.27 1.78,-0.82 0.43,-0.55 0.65,-1.3 0.65,-2.25 v -6.56 h 2.65 v 6.65 c 0,1.72 -0.47,3.05 -1.43,3.97 -0.95,0.92 -2.17,1.39 -3.65,1.39 -1.48,0 -2.71,-0.46 -3.66,-1.39 -0.96,-0.93 -1.44,-2.25 -1.44,-3.96 v -6.65 h 2.65 v 6.56 c 0.01,0.94 0.23,1.69 0.67,2.24"
   id="path4617"
   inkscape:connector-curvature="0"
   style="fill:#ffffff" />
	</g>
	<polygon
   class="st1"
   points="227.25,418.37 223.88,418.37 223.88,416.08 233.26,416.08 233.26,418.37 229.9,418.37 229.9,427.96 227.25,427.96 "
   id="polygon4621"
   style="fill:#ffffff" />
	<polygon
   class="st1"
   points="237.85,420.89 243.17,420.89 243.17,423.15 237.85,423.15 237.85,425.62 243.96,425.62 243.96,427.96 235.2,427.96 235.2,416.08 243.77,416.08 243.77,418.44 237.85,418.44 "
   id="polygon4623"
   style="fill:#ffffff" />
	<rect
   x="246.32001"
   y="416.07999"
   class="st1"
   width="2.6500001"
   height="11.88"
   id="rect4625"
   style="fill:#ffffff" />
	<polygon
   class="st1"
   points="254.55,425.6 259.61,425.6 259.61,427.96 251.9,427.96 251.9,416.08 254.55,416.08 "
   id="polygon4627"
   style="fill:#ffffff" />
	<polygon
   class="st1"
   points="264.2,425.6 269.27,425.6 269.27,427.96 261.55,427.96 261.55,416.08 264.2,416.08 "
   id="polygon4629"
   style="fill:#ffffff" />
	<path
   class="st1"
   d="m 276.09,419.61 -1.5,3.45 h 2.98 z m 3.58,8.35 -1.1,-2.57 h -4.98 l -1.1,2.57 h -2.82 l 5.13,-11.88 h 2.57 l 5.13,11.88 z"
   id="path4631"
   inkscape:connector-curvature="0"
   style="fill:#ffffff" />
	<g
   id="g4635">
		<path
   class="st1"
   d="m 291.59,421.91 h 2.67 v 4.22 c -1.18,1.31 -2.81,1.97 -4.9,1.97 -1.74,0 -3.21,-0.58 -4.39,-1.73 -1.19,-1.16 -1.78,-2.61 -1.78,-4.38 0,-1.76 0.6,-3.23 1.81,-4.41 1.21,-1.18 2.66,-1.77 4.37,-1.77 1.71,0 3.19,0.56 4.45,1.68 l -1.38,1.99 c -0.53,-0.46 -1.02,-0.78 -1.47,-0.96 -0.45,-0.17 -0.93,-0.26 -1.45,-0.26 -1.01,0 -1.86,0.34 -2.55,1.03 -0.69,0.69 -1.04,1.59 -1.04,2.71 0,1.12 0.33,2.02 0.99,2.69 0.66,0.67 1.45,1.01 2.37,1.01 0.92,0 1.68,-0.18 2.3,-0.53 z"
   id="path4633"
   inkscape:connector-curvature="0"
   style="fill:#ffffff" />
	</g>
	<polygon
   class="st1"
   points="299.28,420.89 304.6,420.89 304.6,423.15 299.28,423.15 299.28,425.62 305.38,425.62 305.38,427.96 296.62,427.96 296.62,416.08 305.19,416.08 305.19,418.44 299.28,418.44 "
   id="polygon4637"
   style="fill:#ffffff" />
	<g
   id="g4641">
		<path
   class="st1"
   d="m 310.52,418.45 c -0.26,0.21 -0.38,0.49 -0.38,0.83 0,0.35 0.15,0.62 0.47,0.83 0.31,0.2 1.03,0.45 2.16,0.72 1.13,0.28 2,0.69 2.63,1.25 0.62,0.56 0.94,1.37 0.94,2.43 0,1.07 -0.4,1.93 -1.2,2.59 -0.8,0.66 -1.85,0.99 -3.15,0.99 -1.88,0 -3.58,-0.7 -5.08,-2.09 l 1.58,-1.94 c 1.28,1.12 2.46,1.68 3.55,1.68 0.49,0 0.87,-0.1 1.15,-0.31 0.28,-0.21 0.42,-0.49 0.42,-0.85 0,-0.36 -0.15,-0.64 -0.44,-0.85 -0.3,-0.21 -0.88,-0.42 -1.75,-0.64 -1.38,-0.33 -2.39,-0.76 -3.04,-1.28 -0.64,-0.53 -0.96,-1.35 -0.96,-2.48 0,-1.13 0.4,-2 1.22,-2.61 0.81,-0.61 1.82,-0.92 3.03,-0.92 0.79,0 1.59,0.14 2.38,0.41 0.79,0.27 1.48,0.66 2.07,1.16 l -1.34,1.94 c -1.03,-0.78 -2.1,-1.17 -3.2,-1.17 -0.46,0 -0.8,0.1 -1.06,0.31"
   id="path4639"
   inkscape:connector-curvature="0"
   style="fill:#ffffff" />
	</g>
	<polygon
   class="st1"
   points="93.63,508.82 98.95,508.82 98.95,511.08 93.63,511.08 93.63,513.55 99.73,513.55 99.73,515.9 90.97,515.9 90.97,504.01 99.54,504.01 99.54,506.38 93.63,506.38 "
   id="polygon4643"
   style="fill:#ffffff" />
	<g
   id="g4649">
		<path
   class="st1"
   d="m 104.87,506.38 c -0.26,0.21 -0.38,0.49 -0.38,0.83 0,0.35 0.15,0.62 0.47,0.83 0.31,0.2 1.03,0.45 2.16,0.72 1.13,0.28 2,0.69 2.63,1.25 0.62,0.56 0.94,1.37 0.94,2.43 0,1.07 -0.4,1.93 -1.2,2.59 -0.8,0.66 -1.85,0.99 -3.15,0.99 -1.88,0 -3.58,-0.7 -5.08,-2.09 l 1.58,-1.94 c 1.28,1.12 2.47,1.68 3.55,1.68 0.49,0 0.87,-0.1 1.15,-0.32 0.28,-0.21 0.42,-0.49 0.42,-0.85 0,-0.36 -0.15,-0.64 -0.44,-0.85 -0.3,-0.21 -0.88,-0.42 -1.75,-0.64 -1.38,-0.33 -2.4,-0.76 -3.04,-1.28 -0.64,-0.53 -0.96,-1.35 -0.96,-2.48 0,-1.13 0.4,-2 1.22,-2.61 0.81,-0.61 1.82,-0.92 3.03,-0.92 0.79,0 1.59,0.14 2.38,0.41 0.79,0.27 1.48,0.66 2.07,1.16 l -1.34,1.94 c -1.03,-0.78 -2.1,-1.17 -3.2,-1.17 -0.45,0.01 -0.8,0.11 -1.06,0.32"
   id="path4645"
   inkscape:connector-curvature="0"
   style="fill:#ffffff" />
		<path
   class="st1"
   d="m 119.18,509.75 c 0.32,-0.36 0.48,-0.88 0.48,-1.57 0,-0.68 -0.21,-1.17 -0.62,-1.46 -0.41,-0.29 -1.06,-0.43 -1.93,-0.43 h -1.51 v 3.99 h 1.79 c 0.87,0 1.47,-0.17 1.79,-0.53 m 1.94,-4.68 c 0.83,0.71 1.25,1.8 1.25,3.26 0,1.47 -0.43,2.54 -1.28,3.22 -0.86,0.68 -2.16,1.02 -3.92,1.02 h -1.58 v 3.32 h -2.65 v -11.88 h 4.2 c 1.82,0 3.15,0.36 3.98,1.06"
   id="path4647"
   inkscape:connector-curvature="0"
   style="fill:#ffffff" />
	</g>
	<path
   class="st1"
   d="m 128.63,507.55 -1.5,3.45 h 2.98 z m 3.59,8.35 -1.1,-2.57 h -4.98 l -1.1,2.57 h -2.82 l 5.13,-11.88 h 2.57 l 5.13,11.88 z"
   id="path4651"
   inkscape:connector-curvature="0"
   style="fill:#ffffff" />
	<g
   id="g4655">
		<path
   class="st1"
   d="m 141.87,513.55 c 1.3,0 2.37,-0.52 3.2,-1.55 l 1.7,1.75 c -1.35,1.52 -2.94,2.28 -4.77,2.28 -1.83,0 -3.34,-0.58 -4.52,-1.73 -1.18,-1.16 -1.78,-2.61 -1.78,-4.38 0,-1.76 0.6,-3.23 1.81,-4.41 1.21,-1.18 2.68,-1.77 4.43,-1.77 1.95,0 3.58,0.74 4.9,2.23 l -1.65,1.87 c -0.84,-1.04 -1.88,-1.56 -3.13,-1.56 -1,0 -1.85,0.33 -2.56,0.98 -0.71,0.65 -1.06,1.53 -1.06,2.64 0,1.1 0.33,1.99 1,2.66 0.67,0.66 1.48,0.99 2.43,0.99"
   id="path4653"
   inkscape:connector-curvature="0"
   style="fill:#ffffff" />
	</g>
	<polygon
   class="st1"
   points="151.51,508.82 156.83,508.82 156.83,511.08 151.51,511.08 151.51,513.55 157.61,513.55 157.61,515.9 148.86,515.9 148.86,504.01 157.43,504.01 157.43,506.38 151.51,506.38 "
   id="polygon4657"
   style="fill:#ffffff" />
	<g
   id="g4661">
		<path
   class="st1"
   d="m 170.71,509.75 c 0.32,-0.36 0.48,-0.88 0.48,-1.57 0,-0.68 -0.21,-1.17 -0.62,-1.46 -0.41,-0.29 -1.06,-0.43 -1.93,-0.43 h -1.51 v 3.99 h 1.79 c 0.87,0 1.47,-0.17 1.79,-0.53 m 1.94,-4.68 c 0.83,0.71 1.25,1.8 1.25,3.26 0,1.47 -0.43,2.54 -1.28,3.22 -0.86,0.68 -2.16,1.02 -3.92,1.02 h -1.58 v 3.32 h -2.65 v -11.88 h 4.2 c 1.82,0 3.15,0.36 3.98,1.06"
   id="path4659"
   inkscape:connector-curvature="0"
   style="fill:#ffffff" />
	</g>
	<polygon
   class="st1"
   points="178.63,508.82 183.95,508.82 183.95,511.08 178.63,511.08 178.63,513.55 184.73,513.55 184.73,515.9 175.98,515.9 175.98,504.01 184.54,504.01 184.54,506.38 178.63,506.38 "
   id="polygon4663"
   style="fill:#ffffff" />
	<g
   id="g4671">
		<path
   class="st1"
   d="m 193.54,509.37 c 0.33,-0.29 0.49,-0.76 0.49,-1.4 0,-0.64 -0.17,-1.08 -0.51,-1.32 -0.34,-0.24 -0.93,-0.36 -1.78,-0.36 h -1.99 v 3.52 h 1.94 c 0.9,0 1.52,-0.15 1.85,-0.44 m 3.19,-1.41 c 0,1.9 -0.75,3.14 -2.26,3.69 l 3.01,4.25 h -3.26 l -2.63,-3.79 h -1.84 v 3.79 h -2.65 v -11.88 h 4.51 c 1.85,0 3.16,0.31 3.95,0.93 0.78,0.62 1.17,1.62 1.17,3.01"
   id="path4665"
   inkscape:connector-curvature="0"
   style="fill:#ffffff" />
		<path
   class="st1"
   d="m 202.23,506.38 c -0.26,0.21 -0.38,0.49 -0.38,0.83 0,0.35 0.15,0.62 0.47,0.83 0.31,0.2 1.03,0.45 2.16,0.72 1.13,0.28 2,0.69 2.63,1.25 0.62,0.56 0.94,1.37 0.94,2.43 0,1.07 -0.4,1.93 -1.2,2.59 -0.8,0.66 -1.85,0.99 -3.15,0.99 -1.88,0 -3.58,-0.7 -5.08,-2.09 l 1.58,-1.94 c 1.28,1.12 2.46,1.68 3.55,1.68 0.49,0 0.87,-0.1 1.15,-0.32 0.28,-0.21 0.42,-0.49 0.42,-0.85 0,-0.36 -0.15,-0.64 -0.44,-0.85 -0.3,-0.21 -0.88,-0.42 -1.75,-0.64 -1.38,-0.33 -2.4,-0.76 -3.04,-1.28 -0.64,-0.53 -0.96,-1.35 -0.96,-2.48 0,-1.13 0.4,-2 1.22,-2.61 0.81,-0.61 1.82,-0.92 3.03,-0.92 0.79,0 1.59,0.14 2.38,0.41 0.79,0.27 1.48,0.66 2.07,1.16 l -1.34,1.94 c -1.03,-0.78 -2.1,-1.17 -3.2,-1.17 -0.46,0.01 -0.8,0.11 -1.06,0.32"
   id="path4667"
   inkscape:connector-curvature="0"
   style="fill:#ffffff" />
		<path
   class="st1"
   d="m 219.39,509.89 c 0,-1.06 -0.34,-1.96 -1.02,-2.71 -0.68,-0.75 -1.52,-1.12 -2.51,-1.12 -0.99,0 -1.83,0.37 -2.51,1.12 -0.68,0.75 -1.02,1.65 -1.02,2.71 0,1.06 0.34,1.96 1.02,2.7 0.68,0.74 1.52,1.11 2.51,1.11 0.99,0 1.83,-0.37 2.51,-1.11 0.68,-0.74 1.02,-1.64 1.02,-2.7 m 0.9,4.36 c -1.2,1.17 -2.68,1.76 -4.44,1.76 -1.76,0 -3.24,-0.59 -4.44,-1.76 -1.2,-1.17 -1.8,-2.63 -1.8,-4.38 0,-1.74 0.6,-3.2 1.8,-4.38 1.2,-1.18 2.68,-1.76 4.44,-1.76 1.76,0 3.24,0.59 4.44,1.76 1.2,1.17 1.8,2.63 1.8,4.38 0.01,1.75 -0.6,3.21 -1.8,4.38"
   id="path4669"
   inkscape:connector-curvature="0"
   style="fill:#ffffff" />
	</g>
	<polygon
   class="st1"
   points="232.65,515.9 226.99,508.45 226.99,515.9 224.34,515.9 224.34,504.01 226.82,504.01 232.65,511.66 232.65,504.01 235.3,504.01 235.3,515.9 "
   id="polygon4673"
   style="fill:#ffffff" />
	<polygon
   class="st1"
   points="246.54,515.9 240.88,508.45 240.88,515.9 238.23,515.9 238.23,504.01 240.71,504.01 246.54,511.66 246.54,504.01 249.19,504.01 249.19,515.9 "
   id="polygon4675"
   style="fill:#ffffff" />
	<polygon
   class="st1"
   points="254.77,508.82 260.09,508.82 260.09,511.08 254.77,511.08 254.77,513.55 260.87,513.55 260.87,515.9 252.12,515.9 252.12,504.01 260.68,504.01 260.68,506.38 254.77,506.38 "
   id="polygon4677"
   style="fill:#ffffff" />
	<polygon
   class="st1"
   points="265.89,513.53 270.95,513.53 270.95,515.9 263.23,515.9 263.23,504.01 265.89,504.01 "
   id="polygon4679"
   style="fill:#ffffff" />
	<g
   id="g4687">
		<path
   class="st1"
   d="m 93.75,594.32 c -0.25,0.21 -0.38,0.49 -0.38,0.83 0,0.35 0.16,0.62 0.47,0.82 0.31,0.2 1.03,0.45 2.16,0.72 1.13,0.28 2,0.69 2.63,1.25 0.62,0.56 0.93,1.36 0.93,2.43 0,1.07 -0.4,1.93 -1.2,2.59 -0.8,0.66 -1.85,0.99 -3.15,0.99 -1.88,0 -3.58,-0.7 -5.08,-2.09 l 1.58,-1.94 c 1.28,1.12 2.47,1.68 3.55,1.68 0.49,0 0.87,-0.11 1.15,-0.32 0.28,-0.21 0.42,-0.49 0.42,-0.85 0,-0.36 -0.15,-0.64 -0.44,-0.85 -0.29,-0.21 -0.88,-0.42 -1.75,-0.64 -1.38,-0.33 -2.4,-0.76 -3.04,-1.28 -0.64,-0.53 -0.96,-1.35 -0.96,-2.48 0,-1.13 0.41,-2 1.22,-2.61 0.81,-0.61 1.82,-0.92 3.03,-0.92 0.79,0 1.59,0.14 2.38,0.41 0.79,0.27 1.48,0.66 2.07,1.16 L 98,595.17 C 96.97,594.39 95.9,594 94.8,594 c -0.44,0 -0.79,0.11 -1.05,0.32"
   id="path4681"
   inkscape:connector-curvature="0"
   style="fill:#ffffff" />
		<path
   class="st1"
   d="m 104.96,600.76 c 0.44,0.55 1.04,0.82 1.78,0.82 0.74,0 1.34,-0.27 1.78,-0.82 0.43,-0.55 0.65,-1.3 0.65,-2.25 v -6.56 h 2.65 v 6.65 c 0,1.72 -0.47,3.05 -1.43,3.97 -0.95,0.92 -2.17,1.39 -3.65,1.39 -1.48,0 -2.71,-0.47 -3.66,-1.4 -0.96,-0.93 -1.44,-2.25 -1.44,-3.96 v -6.65 h 2.65 v 6.56 c 0.01,0.95 0.23,1.7 0.67,2.25"
   id="path4683"
   inkscape:connector-curvature="0"
   style="fill:#ffffff" />
		<path
   class="st1"
   d="m 121.03,597.3 c 0.33,-0.29 0.49,-0.76 0.49,-1.4 0,-0.64 -0.17,-1.08 -0.51,-1.32 -0.34,-0.24 -0.93,-0.36 -1.78,-0.36 h -1.99 v 3.52 h 1.94 c 0.9,0 1.52,-0.15 1.85,-0.44 m 3.19,-1.41 c 0,1.9 -0.75,3.14 -2.26,3.69 l 3.01,4.25 h -3.26 l -2.63,-3.79 h -1.84 v 3.79 h -2.65 v -11.88 h 4.5 c 1.85,0 3.17,0.31 3.95,0.93 0.79,0.62 1.18,1.63 1.18,3.01"
   id="path4685"
   inkscape:connector-curvature="0"
   style="fill:#ffffff" />
	</g>
	<polygon
   class="st1"
   points="129.6,596.84 134.83,596.84 134.83,599.17 129.6,599.17 129.6,603.83 126.94,603.83 126.94,591.95 135.1,591.95 135.1,594.27 129.6,594.27 "
   id="polygon4689"
   style="fill:#ffffff" />
	<path
   class="st1"
   d="m 141.58,595.48 -1.5,3.45 h 2.98 z m 3.59,8.35 -1.1,-2.57 h -4.98 l -1.1,2.57 h -2.82 l 5.13,-11.88 h 2.57 l 5.13,11.88 z"
   id="path4691"
   inkscape:connector-curvature="0"
   style="fill:#ffffff" />
	<g
   id="g4695">
		<path
   class="st1"
   d="m 154.83,601.48 c 1.3,0 2.37,-0.52 3.2,-1.55 l 1.7,1.75 c -1.35,1.52 -2.94,2.28 -4.77,2.28 -1.83,0 -3.34,-0.58 -4.52,-1.73 -1.18,-1.16 -1.78,-2.61 -1.78,-4.38 0,-1.76 0.6,-3.23 1.81,-4.41 1.21,-1.18 2.68,-1.77 4.43,-1.77 1.95,0 3.58,0.74 4.9,2.23 l -1.65,1.87 c -0.84,-1.04 -1.88,-1.56 -3.13,-1.56 -1,0 -1.85,0.33 -2.56,0.98 -0.71,0.65 -1.06,1.53 -1.06,2.64 0,1.1 0.33,1.99 1,2.66 0.66,0.66 1.47,0.99 2.43,0.99"
   id="path4693"
   inkscape:connector-curvature="0"
   style="fill:#ffffff" />
	</g>
	<polygon
   class="st1"
   points="164.46,596.76 169.78,596.76 169.78,599.02 164.46,599.02 164.46,601.48 170.57,601.48 170.57,603.83 161.81,603.83 161.81,591.95 170.38,591.95 170.38,594.31 164.46,594.31 "
   id="polygon4697"
   style="fill:#ffffff" />
	<path
   class="st1"
   d="m 182.3,595.48 -1.5,3.45 h 2.98 z m 3.58,8.35 -1.1,-2.57 h -4.98 l -1.1,2.57 h -2.82 l 5.13,-11.88 h 2.57 l 5.13,11.88 z"
   id="path4699"
   inkscape:connector-curvature="0"
   style="fill:#ffffff" />
	<g
   id="g4705">
		<path
   class="st1"
   d="m 197.8,597.78 h 2.67 V 602 c -1.18,1.31 -2.81,1.97 -4.9,1.97 -1.74,0 -3.21,-0.58 -4.39,-1.73 -1.19,-1.16 -1.78,-2.61 -1.78,-4.38 0,-1.76 0.6,-3.23 1.81,-4.41 1.21,-1.18 2.66,-1.77 4.37,-1.77 1.71,0 3.19,0.56 4.45,1.68 l -1.38,1.99 c -0.53,-0.46 -1.02,-0.78 -1.47,-0.96 -0.45,-0.17 -0.93,-0.26 -1.45,-0.26 -1.01,0 -1.86,0.34 -2.55,1.03 -0.69,0.69 -1.04,1.59 -1.04,2.71 0,1.12 0.33,2.02 1,2.69 0.66,0.67 1.45,1.01 2.37,1.01 0.92,0 1.68,-0.18 2.3,-0.53 v -3.26 z"
   id="path4701"
   inkscape:connector-curvature="0"
   style="fill:#ffffff" />
		<path
   class="st1"
   d="m 209.28,597.3 c 0.33,-0.29 0.49,-0.76 0.49,-1.4 0,-0.64 -0.17,-1.08 -0.51,-1.32 -0.34,-0.24 -0.93,-0.36 -1.78,-0.36 h -1.99 v 3.52 h 1.94 c 0.9,0 1.52,-0.15 1.85,-0.44 m 3.19,-1.41 c 0,1.9 -0.75,3.14 -2.26,3.69 l 3.01,4.25 h -3.26 l -2.63,-3.79 h -1.84 v 3.79 h -2.65 v -11.88 h 4.51 c 1.85,0 3.16,0.31 3.95,0.93 0.78,0.62 1.17,1.63 1.17,3.01"
   id="path4703"
   inkscape:connector-curvature="0"
   style="fill:#ffffff" />
	</g>
	<rect
   x="215.19"
   y="591.95001"
   class="st1"
   width="2.6500001"
   height="11.88"
   id="rect4707"
   style="fill:#ffffff" />
	<g
   id="g4713">
		<path
   class="st1"
   d="m 226.23,601.48 c 1.3,0 2.37,-0.52 3.2,-1.55 l 1.7,1.75 c -1.35,1.52 -2.94,2.28 -4.77,2.28 -1.83,0 -3.34,-0.58 -4.52,-1.73 -1.18,-1.16 -1.78,-2.61 -1.78,-4.38 0,-1.76 0.6,-3.23 1.81,-4.41 1.21,-1.18 2.68,-1.77 4.43,-1.77 1.95,0 3.58,0.74 4.9,2.23 l -1.65,1.87 c -0.84,-1.04 -1.88,-1.56 -3.13,-1.56 -1,0 -1.85,0.33 -2.56,0.98 -0.71,0.65 -1.06,1.53 -1.06,2.64 0,1.1 0.33,1.99 1,2.66 0.66,0.66 1.47,0.99 2.43,0.99"
   id="path4709"
   inkscape:connector-curvature="0"
   style="fill:#ffffff" />
		<path
   class="st1"
   d="m 242.05,597.82 c 0,-1.06 -0.34,-1.96 -1.02,-2.71 -0.68,-0.75 -1.52,-1.12 -2.51,-1.12 -0.99,0 -1.83,0.37 -2.51,1.12 -0.68,0.75 -1.02,1.65 -1.02,2.71 0,1.06 0.34,1.96 1.02,2.7 0.68,0.74 1.52,1.11 2.51,1.11 0.99,0 1.83,-0.37 2.51,-1.11 0.68,-0.74 1.02,-1.64 1.02,-2.7 m 0.9,4.37 c -1.2,1.17 -2.68,1.76 -4.44,1.76 -1.76,0 -3.24,-0.59 -4.44,-1.76 -1.2,-1.17 -1.8,-2.63 -1.8,-4.38 0,-1.75 0.6,-3.21 1.8,-4.38 1.2,-1.17 2.68,-1.76 4.44,-1.76 1.76,0 3.24,0.59 4.44,1.76 1.2,1.17 1.8,2.63 1.8,4.38 0,1.75 -0.6,3.2 -1.8,4.38"
   id="path4711"
   inkscape:connector-curvature="0"
   style="fill:#ffffff" />
	</g>
	<polygon
   class="st1"
   points="249.65,601.46 254.72,601.46 254.72,603.83 247,603.83 247,591.94 249.65,591.94 "
   id="polygon4715"
   style="fill:#ffffff" />
	<polygon
   class="st1"
   points="259.31,596.76 264.63,596.76 264.63,599.02 259.31,599.02 259.31,601.48 265.41,601.48 265.41,603.83 256.66,603.83 256.66,591.95 265.22,591.95 265.22,594.31 259.31,594.31 "
   id="polygon4717"
   style="fill:#ffffff" />
	<g
   id="g4721">
		<path
   class="st1"
   d="m 98.11,688.5 c 0.65,-0.61 0.98,-1.5 0.98,-2.67 0,-1.17 -0.33,-2.07 -0.98,-2.7 -0.65,-0.63 -1.65,-0.94 -3,-0.94 h -1.48 v 7.22 h 1.68 c 1.21,0 2.14,-0.3 2.8,-0.91 m 1.94,-7.07 c 1.13,1.04 1.7,2.48 1.7,4.33 0,1.85 -0.55,3.31 -1.66,4.39 -1.1,1.08 -2.79,1.61 -5.06,1.61 h -4.06 v -11.88 h 4.2 c 2.12,0 3.75,0.52 4.88,1.55"
   id="path4719"
   inkscape:connector-curvature="0"
   style="fill:#ffffff" />
	</g>
	<polygon
   class="st1"
   points="106.7,684.69 112.02,684.69 112.02,686.95 106.7,686.95 106.7,689.41 112.8,689.41 112.8,691.76 104.05,691.76 104.05,679.88 112.62,679.88 112.62,682.24 106.7,682.24 "
   id="polygon4723"
   style="fill:#ffffff" />
	<polygon
   class="st1"
   points="123.48,691.76 117.82,684.31 117.82,691.76 115.17,691.76 115.17,679.88 117.65,679.88 123.48,687.53 123.48,679.88 126.13,679.88 126.13,691.76 "
   id="polygon4725"
   style="fill:#ffffff" />
	<g
   id="g4729">
		<path
   class="st1"
   d="m 131.83,682.25 c -0.26,0.21 -0.38,0.49 -0.38,0.83 0,0.34 0.15,0.62 0.47,0.83 0.31,0.2 1.03,0.45 2.16,0.72 1.13,0.28 2,0.69 2.63,1.25 0.62,0.56 0.93,1.36 0.93,2.43 0,1.07 -0.4,1.93 -1.2,2.59 -0.8,0.66 -1.85,0.99 -3.15,0.99 -1.88,0 -3.58,-0.7 -5.08,-2.09 l 1.58,-1.94 c 1.28,1.12 2.47,1.68 3.55,1.68 0.49,0 0.87,-0.1 1.15,-0.32 0.28,-0.21 0.42,-0.49 0.42,-0.85 0,-0.36 -0.15,-0.64 -0.44,-0.85 -0.3,-0.21 -0.88,-0.42 -1.75,-0.64 -1.38,-0.33 -2.4,-0.76 -3.04,-1.28 -0.64,-0.53 -0.96,-1.35 -0.96,-2.48 0,-1.13 0.4,-2 1.22,-2.61 0.81,-0.61 1.82,-0.92 3.03,-0.92 0.79,0 1.59,0.14 2.38,0.41 0.79,0.27 1.48,0.66 2.07,1.16 l -1.34,1.94 c -1.03,-0.78 -2.1,-1.17 -3.2,-1.17 -0.44,0 -0.79,0.11 -1.05,0.32"
   id="path4727"
   inkscape:connector-curvature="0"
   style="fill:#ffffff" />
	</g>
	<rect
   x="139.89999"
   y="679.88"
   class="st1"
   width="2.6500001"
   height="11.88"
   id="rect4731"
   style="fill:#ffffff" />
	<polygon
   class="st1"
   points="147.86,682.17 144.49,682.17 144.49,679.88 153.87,679.88 153.87,682.17 150.51,682.17 150.51,691.76 147.86,691.76 "
   id="polygon4733"
   style="fill:#ffffff" />
	<path
   class="st1"
   d="m 161.07,678.65 h -2.43 l 2.16,-3.01 2.64,1.1 z m 3.31,1.23 v 2.36 h -5.92 v 2.45 h 5.32 v 2.26 h -5.32 v 2.46 h 6.1 v 2.35 h -8.75 v -11.88 z"
   id="path4735"
   inkscape:connector-curvature="0"
   style="fill:#ffffff" />
	<g
   id="g4739">
		<path
   class="st1"
   d="m 178.55,688.5 c 0.65,-0.61 0.98,-1.5 0.98,-2.67 0,-1.17 -0.33,-2.07 -0.98,-2.7 -0.65,-0.63 -1.65,-0.94 -3,-0.94 h -1.48 v 7.22 h 1.68 c 1.22,0 2.15,-0.3 2.8,-0.91 m 1.95,-7.07 c 1.13,1.04 1.7,2.48 1.7,4.33 0,1.85 -0.55,3.31 -1.66,4.39 -1.1,1.08 -2.79,1.61 -5.06,1.61 h -4.06 v -11.88 h 4.2 c 2.12,0 3.74,0.52 4.88,1.55"
   id="path4737"
   inkscape:connector-curvature="0"
   style="fill:#ffffff" />
	</g>
	<polygon
   class="st1"
   points="187.14,684.69 192.46,684.69 192.46,686.95 187.14,686.95 187.14,689.41 193.25,689.41 193.25,691.76 184.49,691.76 184.49,679.88 193.06,679.88 193.06,682.24 187.14,682.24 "
   id="polygon4741"
   style="fill:#ffffff" />
	<g
   id="g4747">
		<path
   class="st1"
   d="m 198.39,682.25 c -0.26,0.21 -0.38,0.49 -0.38,0.83 0,0.34 0.15,0.62 0.47,0.83 0.31,0.2 1.03,0.45 2.16,0.72 1.13,0.28 2,0.69 2.63,1.25 0.62,0.56 0.94,1.36 0.94,2.43 0,1.07 -0.4,1.93 -1.2,2.59 -0.8,0.66 -1.85,0.99 -3.15,0.99 -1.88,0 -3.58,-0.7 -5.08,-2.09 l 1.58,-1.94 c 1.28,1.12 2.46,1.68 3.55,1.68 0.49,0 0.87,-0.1 1.15,-0.32 0.28,-0.21 0.42,-0.49 0.42,-0.85 0,-0.36 -0.15,-0.64 -0.44,-0.85 -0.3,-0.21 -0.88,-0.42 -1.75,-0.64 -1.38,-0.33 -2.4,-0.76 -3.04,-1.28 -0.64,-0.53 -0.96,-1.35 -0.96,-2.48 0,-1.13 0.4,-2 1.22,-2.61 0.81,-0.61 1.82,-0.92 3.03,-0.92 0.79,0 1.59,0.14 2.38,0.41 0.79,0.27 1.48,0.66 2.07,1.16 l -1.34,1.94 c -1.03,-0.78 -2.1,-1.17 -3.2,-1.17 -0.46,0 -0.81,0.11 -1.06,0.32"
   id="path4743"
   inkscape:connector-curvature="0"
   style="fill:#ffffff" />
		<path
   class="st1"
   d="m 213.72,682.25 c -0.26,0.21 -0.38,0.49 -0.38,0.83 0,0.34 0.15,0.62 0.47,0.83 0.31,0.2 1.03,0.45 2.16,0.72 1.13,0.28 2,0.69 2.63,1.25 0.62,0.56 0.94,1.36 0.94,2.43 0,1.07 -0.4,1.93 -1.2,2.59 -0.8,0.66 -1.85,0.99 -3.15,0.99 -1.88,0 -3.58,-0.7 -5.08,-2.09 l 1.58,-1.94 c 1.28,1.12 2.46,1.68 3.55,1.68 0.49,0 0.87,-0.1 1.15,-0.32 0.28,-0.21 0.42,-0.49 0.42,-0.85 0,-0.36 -0.15,-0.64 -0.44,-0.85 -0.3,-0.21 -0.88,-0.42 -1.75,-0.64 -1.38,-0.33 -2.4,-0.76 -3.04,-1.28 -0.64,-0.53 -0.96,-1.35 -0.96,-2.48 0,-1.13 0.4,-2 1.22,-2.61 0.81,-0.61 1.82,-0.92 3.03,-0.92 0.79,0 1.59,0.14 2.38,0.41 0.79,0.27 1.48,0.66 2.07,1.16 l -1.34,1.94 c -1.03,-0.78 -2.1,-1.17 -3.2,-1.17 -0.45,0 -0.8,0.11 -1.06,0.32"
   id="path4745"
   inkscape:connector-curvature="0"
   style="fill:#ffffff" />
	</g>
	<polygon
   class="st1"
   points="224.44,684.69 229.76,684.69 229.76,686.95 224.44,686.95 224.44,689.41 230.54,689.41 230.54,691.76 221.79,691.76 221.79,679.88 230.36,679.88 230.36,682.24 224.44,682.24 "
   id="polygon4749"
   style="fill:#ffffff" />
	<g
   id="g4753">
		<path
   class="st1"
   d="m 239.35,685.23 c 0.33,-0.29 0.49,-0.76 0.49,-1.4 0,-0.64 -0.17,-1.08 -0.51,-1.32 -0.34,-0.24 -0.93,-0.36 -1.78,-0.36 h -1.99 v 3.52 h 1.94 c 0.9,0 1.52,-0.14 1.85,-0.44 m 3.2,-1.41 c 0,1.9 -0.75,3.14 -2.26,3.69 l 3.01,4.25 h -3.26 l -2.63,-3.79 h -1.84 v 3.79 h -2.65 v -11.88 h 4.51 c 1.85,0 3.16,0.31 3.95,0.93 0.77,0.63 1.17,1.63 1.17,3.01"
   id="path4751"
   inkscape:connector-curvature="0"
   style="fill:#ffffff" />
	</g>
	<polygon
   class="st1"
   points="250.55,691.76 248.31,691.76 243.53,679.88 246.41,679.88 249.43,687.44 252.46,679.88 255.33,679.88 "
   id="polygon4755"
   style="fill:#ffffff" />
	<rect
   x="256.73999"
   y="679.88"
   class="st1"
   width="2.6500001"
   height="11.88"
   id="rect4757"
   style="fill:#ffffff" />
	<g
   id="g4761">
		<path
   class="st1"
   d="m 267.77,689.41 c 1.3,0 2.37,-0.52 3.2,-1.55 l 1.7,1.75 c -1.35,1.52 -2.94,2.28 -4.77,2.28 -1.83,0 -3.34,-0.58 -4.52,-1.73 -1.18,-1.16 -1.78,-2.61 -1.78,-4.38 0,-1.76 0.6,-3.23 1.81,-4.41 1.21,-1.18 2.68,-1.77 4.43,-1.77 1.95,0 3.58,0.74 4.9,2.23 l -1.65,1.87 c -0.84,-1.04 -1.88,-1.56 -3.13,-1.56 -1,0 -1.85,0.33 -2.56,0.98 -0.71,0.65 -1.06,1.53 -1.06,2.64 0,1.11 0.33,1.99 1,2.66 0.67,0.66 1.48,0.99 2.43,0.99"
   id="path4759"
   inkscape:connector-curvature="0"
   style="fill:#ffffff" />
	</g>
	<polygon
   class="st1"
   points="277.41,684.69 282.73,684.69 282.73,686.95 277.41,686.95 277.41,689.41 283.52,689.41 283.52,691.76 274.76,691.76 274.76,679.88 283.33,679.88 283.33,682.24 277.41,682.24 "
   id="polygon4763"
   style="fill:#ffffff" />
	<g
   id="g4767">
		<path
   class="st1"
   d="m 288.66,682.25 c -0.26,0.21 -0.38,0.49 -0.38,0.83 0,0.34 0.15,0.62 0.47,0.83 0.31,0.2 1.03,0.45 2.16,0.72 1.13,0.28 2,0.69 2.63,1.25 0.62,0.56 0.94,1.36 0.94,2.43 0,1.07 -0.4,1.93 -1.2,2.59 -0.8,0.66 -1.85,0.99 -3.15,0.99 -1.88,0 -3.58,-0.7 -5.08,-2.09 l 1.58,-1.94 c 1.28,1.12 2.46,1.68 3.55,1.68 0.49,0 0.87,-0.1 1.15,-0.32 0.28,-0.21 0.42,-0.49 0.42,-0.85 0,-0.36 -0.15,-0.64 -0.44,-0.85 -0.29,-0.21 -0.88,-0.42 -1.75,-0.64 -1.38,-0.33 -2.4,-0.76 -3.04,-1.28 -0.64,-0.53 -0.96,-1.35 -0.96,-2.48 0,-1.13 0.4,-2 1.22,-2.61 0.81,-0.61 1.82,-0.92 3.03,-0.92 0.79,0 1.59,0.14 2.38,0.41 0.79,0.27 1.48,0.66 2.07,1.16 l -1.34,1.94 c -1.03,-0.78 -2.1,-1.17 -3.2,-1.17 -0.46,0 -0.81,0.11 -1.06,0.32"
   id="path4765"
   inkscape:connector-curvature="0"
   style="fill:#ffffff" />
	</g>
	<path
   class="st1"
   d="M 633.37,249.07 H 497.46 v -47.51 h 135.91 z m -129.91,-6 H 627.37 V 207.56 H 503.46 Z"
   id="path4769"
   inkscape:connector-curvature="0"
   style="fill:#ffffff" />
	<g
   id="g4773">
		<path
   class="st1"
   d="m 987.99,748.26 h -952 v -728 h 952 z m -946,-6 h 940 v -716 h -940 z"
   id="path4771"
   inkscape:connector-curvature="0"
   style="fill:#ffffff" />
	</g>
	<path
   class="st1"
   d="m 987.99,306.26 h -316 v -63 h 316 z m -310,-6 h 304 v -51 h -304 z"
   id="path4775"
   inkscape:connector-curvature="0"
   style="fill:#ffffff" />
	<g
   id="g4779">
		<path
   class="st1"
   d="m 987.99,748.26 h -316 v -505 h 316 z m -310,-6 h 304 v -493 h -304 z"
   id="path4777"
   inkscape:connector-curvature="0"
   style="fill:#ffffff" />
	</g>
	<path
   class="st1"
   d="m 713.32,285.14 c 2.3,0 4.18,-0.91 5.64,-2.73 l 3,3.09 c -2.38,2.68 -5.19,4.02 -8.42,4.02 -3.23,0 -5.89,-1.02 -7.98,-3.06 -2.09,-2.04 -3.13,-4.62 -3.13,-7.72 0,-3.11 1.06,-5.71 3.19,-7.79 2.13,-2.08 4.74,-3.12 7.82,-3.12 3.44,0 6.32,1.31 8.64,3.93 l -2.91,3.3 c -1.48,-1.84 -3.32,-2.76 -5.52,-2.76 -1.76,0 -3.27,0.58 -4.51,1.73 -1.25,1.15 -1.88,2.7 -1.88,4.65 0,1.95 0.59,3.52 1.77,4.7 1.18,1.17 2.61,1.76 4.29,1.76 z"
   id="path4781"
   inkscape:connector-curvature="0"
   style="fill:#ffffff" />
	<path
   class="st1"
   d="m 742.84,286.38 c -2.12,2.07 -4.73,3.11 -7.83,3.11 -3.1,0 -5.71,-1.04 -7.83,-3.11 -2.12,-2.07 -3.18,-4.64 -3.18,-7.72 0,-3.08 1.06,-5.66 3.18,-7.73 2.12,-2.07 4.73,-3.1 7.83,-3.1 3.1,0 5.71,1.04 7.83,3.1 2.12,2.07 3.18,4.65 3.18,7.73 0,3.08 -1.06,5.65 -3.18,7.72 z m -1.59,-7.71 c 0,-1.87 -0.6,-3.46 -1.8,-4.79 -1.2,-1.32 -2.68,-1.98 -4.43,-1.98 -1.75,0 -3.22,0.66 -4.42,1.98 -1.2,1.32 -1.8,2.92 -1.8,4.79 0,1.87 0.6,3.46 1.8,4.77 1.2,1.31 2.67,1.96 4.42,1.96 1.75,0 3.22,-0.66 4.43,-1.96 1.2,-1.31 1.8,-2.9 1.8,-4.77 z"
   id="path4783"
   inkscape:connector-curvature="0"
   style="fill:#ffffff" />
	<path
   class="st1"
   d="m 764.65,268.31 h 4.68 v 20.97 h -4.68 l -9.99,-13.14 v 13.14 h -4.68 v -20.97 h 4.38 l 10.29,13.5 z"
   id="path4785"
   inkscape:connector-curvature="0"
   style="fill:#ffffff" />
	<path
   class="st1"
   d="m 779.4,272.49 c -0.45,0.37 -0.68,0.86 -0.68,1.47 0,0.61 0.28,1.09 0.83,1.46 0.55,0.36 1.82,0.79 3.81,1.28 1.99,0.49 3.53,1.22 4.63,2.21 1.1,0.98 1.65,2.41 1.65,4.29 0,1.88 -0.71,3.4 -2.12,4.57 -1.41,1.17 -3.27,1.76 -5.57,1.76 -3.32,0 -6.31,-1.23 -8.97,-3.69 l 2.79,-3.42 c 2.26,1.98 4.35,2.97 6.27,2.97 0.86,0 1.54,-0.18 2.03,-0.55 0.49,-0.37 0.74,-0.87 0.74,-1.5 0,-0.63 -0.26,-1.13 -0.78,-1.5 -0.52,-0.37 -1.55,-0.75 -3.09,-1.12 -2.44,-0.58 -4.22,-1.33 -5.36,-2.27 -1.13,-0.93 -1.69,-2.39 -1.69,-4.38 0,-1.99 0.71,-3.52 2.14,-4.6 1.43,-1.08 3.21,-1.62 5.36,-1.62 1.4,0 2.8,0.24 4.2,0.72 1.4,0.48 2.62,1.16 3.66,2.04 l -2.37,3.42 c -1.82,-1.38 -3.7,-2.07 -5.64,-2.07 -0.78,-0.02 -1.39,0.16 -1.84,0.53 z"
   id="path4787"
   inkscape:connector-curvature="0"
   style="fill:#ffffff" />
	<path
   class="st1"
   d="m 808.75,268.31 v 4.17 h -10.44 v 4.32 h 9.39 v 3.99 h -9.39 v 4.35 h 10.77 v 4.14 h -15.45 v -20.97 z m -5.85,-2.16 h -4.29 l 3.81,-5.31 4.65,1.95 z"
   id="path4789"
   inkscape:connector-curvature="0"
   style="fill:#ffffff" />
	<path
   class="st1"
   d="m 834.07,278.66 c 0,2.18 -0.56,4.14 -1.67,5.88 -1.11,1.74 -2.61,3.04 -4.48,3.9 0.18,0.3 0.46,0.55 0.86,0.76 0.39,0.21 0.79,0.32 1.21,0.32 0.42,0 0.83,-0.07 1.23,-0.2 0.4,-0.13 0.72,-0.29 0.96,-0.46 0.52,-0.42 0.89,-0.83 1.11,-1.23 l 2.43,2.91 c -1.72,1.82 -3.87,2.73 -6.45,2.73 -1.2,0 -2.38,-0.33 -3.54,-0.99 -1.16,-0.66 -2.05,-1.59 -2.67,-2.79 -3.1,0 -5.71,-1.04 -7.83,-3.11 -2.12,-2.07 -3.18,-4.64 -3.18,-7.72 0,-3.08 1.06,-5.66 3.18,-7.73 2.12,-2.07 4.73,-3.1 7.83,-3.1 3.1,0 5.71,1.04 7.83,3.1 2.12,2.07 3.18,4.65 3.18,7.73 z m -4.77,0.01 c 0,-1.87 -0.6,-3.46 -1.8,-4.79 -1.2,-1.32 -2.68,-1.98 -4.43,-1.98 -1.75,0 -3.22,0.66 -4.42,1.98 -1.2,1.32 -1.8,2.92 -1.8,4.79 0,1.87 0.6,3.46 1.8,4.77 1.2,1.31 2.67,1.96 4.42,1.96 1.75,0 3.22,-0.66 4.43,-1.96 1.2,-1.31 1.8,-2.9 1.8,-4.77 z"
   id="path4791"
   inkscape:connector-curvature="0"
   style="fill:#ffffff" />
	<path
   class="st1"
   d="m 843.61,283.86 c 0.78,0.97 1.83,1.46 3.15,1.46 1.32,0 2.36,-0.49 3.13,-1.46 0.77,-0.97 1.15,-2.29 1.15,-3.98 V 268.3 h 4.68 v 11.73 c 0,3.04 -0.84,5.38 -2.52,7 -1.68,1.63 -3.83,2.45 -6.45,2.45 -2.62,0 -4.78,-0.82 -6.46,-2.46 -1.69,-1.64 -2.54,-3.97 -2.54,-6.99 V 268.3 h 4.68 v 11.58 c 0.01,1.69 0.4,3.01 1.18,3.98 z"
   id="path4793"
   inkscape:connector-curvature="0"
   style="fill:#ffffff" />
	<path
   class="st1"
   d="m 875.71,268.31 v 4.17 h -10.44 v 4.32 h 9.39 v 3.99 h -9.39 v 4.35 h 10.77 v 4.14 h -15.45 v -20.97 z"
   id="path4795"
   inkscape:connector-curvature="0"
   style="fill:#ffffff" />
	<path
   class="st1"
   d="m 894.88,268.31 h 4.68 v 20.97 h -4.68 l -9.99,-13.14 v 13.14 h -4.68 v -20.97 h 4.38 l 10.29,13.5 z"
   id="path4797"
   inkscape:connector-curvature="0"
   style="fill:#ffffff" />
	<path
   class="st1"
   d="m 914.35,285.14 c 2.3,0 4.18,-0.91 5.64,-2.73 l 3,3.09 c -2.38,2.68 -5.19,4.02 -8.42,4.02 -3.23,0 -5.89,-1.02 -7.98,-3.06 -2.09,-2.04 -3.13,-4.62 -3.13,-7.72 0,-3.11 1.06,-5.71 3.19,-7.79 2.13,-2.08 4.74,-3.12 7.82,-3.12 3.44,0 6.32,1.31 8.64,3.93 l -2.91,3.3 c -1.48,-1.84 -3.32,-2.76 -5.52,-2.76 -1.76,0 -3.27,0.58 -4.51,1.73 -1.25,1.15 -1.88,2.7 -1.88,4.65 0,1.95 0.59,3.52 1.77,4.7 1.18,1.17 2.61,1.76 4.29,1.76 z"
   id="path4799"
   inkscape:connector-curvature="0"
   style="fill:#ffffff" />
	<path
   class="st1"
   d="m 941.8,268.31 v 4.17 h -10.44 v 4.32 h 9.39 v 3.99 h -9.39 v 4.35 h 10.77 v 4.14 h -15.45 v -20.97 z"
   id="path4801"
   inkscape:connector-curvature="0"
   style="fill:#ffffff" />
	<path
   class="st1"
   d="m 951.21,272.49 c -0.45,0.37 -0.68,0.86 -0.68,1.47 0,0.61 0.28,1.09 0.83,1.46 0.55,0.36 1.82,0.79 3.81,1.28 1.99,0.49 3.53,1.22 4.63,2.21 1.1,0.98 1.65,2.41 1.65,4.29 0,1.88 -0.71,3.4 -2.12,4.57 -1.41,1.17 -3.27,1.76 -5.57,1.76 -3.32,0 -6.31,-1.23 -8.97,-3.69 l 2.79,-3.42 c 2.26,1.98 4.35,2.97 6.27,2.97 0.86,0 1.54,-0.18 2.03,-0.55 0.49,-0.37 0.74,-0.87 0.74,-1.5 0,-0.63 -0.26,-1.13 -0.78,-1.5 -0.52,-0.37 -1.55,-0.75 -3.09,-1.12 -2.44,-0.58 -4.22,-1.33 -5.36,-2.27 -1.13,-0.93 -1.69,-2.39 -1.69,-4.38 0,-1.99 0.71,-3.52 2.14,-4.6 1.43,-1.08 3.21,-1.62 5.36,-1.62 1.4,0 2.8,0.24 4.2,0.72 1.4,0.48 2.62,1.16 3.66,2.04 l -2.37,3.42 c -1.82,-1.38 -3.7,-2.07 -5.64,-2.07 -0.78,-0.02 -1.39,0.16 -1.84,0.53 z"
   id="path4803"
   inkscape:connector-curvature="0"
   style="fill:#ffffff" />
	<path
   class="st1"
   d="M 633.37,207.56 H 497.46 V 57.41 h 135.91 z m -129.91,-6 H 627.37 V 63.41 H 503.46 Z"
   id="path4805"
   inkscape:connector-curvature="0"
   style="fill:#ffffff" />
	<path
   class="st1"
   d="M 338.38,359.37 H 71.99 v -47.51 h 266.39 z m -260.39,-6 H 332.38 V 317.86 H 77.99 Z"
   id="path4807"
   inkscape:connector-curvature="0"
   style="fill:#ffffff" />
	<path
   class="st1"
   d="M 633.26,359.37 H 332.38 v -47.51 h 300.89 v 47.51 z m -294.88,-6 H 627.27 V 317.86 H 338.38 Z"
   id="path4809"
   inkscape:connector-curvature="0"
   style="fill:#ffffff" />
	<path
   class="st1"
   d="m 482.9,347.75 c -6.86,0 -12.44,-5.58 -12.44,-12.44 0,-6.86 5.58,-12.44 12.44,-12.44 6.86,0 12.44,5.58 12.44,12.44 -0.01,6.86 -5.58,12.44 -12.44,12.44 z m 0,-18.88 c -3.55,0 -6.44,2.89 -6.44,6.44 0,3.55 2.89,6.44 6.44,6.44 3.55,0 6.44,-2.89 6.44,-6.44 -0.01,-3.55 -2.89,-6.44 -6.44,-6.44 z"
   id="path4811"
   inkscape:connector-curvature="0"
   style="fill:#ffffff" />
	<path
   class="st1"
   d="m 429.82,347.75 c -6.86,0 -12.44,-5.58 -12.44,-12.44 0,-6.86 5.58,-12.44 12.44,-12.44 6.86,0 12.44,5.58 12.44,12.44 0,6.86 -5.58,12.44 -12.44,12.44 z m 0,-18.88 c -3.55,0 -6.44,2.89 -6.44,6.44 0,3.55 2.89,6.44 6.44,6.44 3.55,0 6.44,-2.89 6.44,-6.44 0,-3.55 -2.89,-6.44 -6.44,-6.44 z"
   id="path4813"
   inkscape:connector-curvature="0"
   style="fill:#ffffff" />
	<path
   class="st1"
   d="m 376.74,347.75 c -6.86,0 -12.44,-5.58 -12.44,-12.44 0,-6.86 5.58,-12.44 12.44,-12.44 6.86,0 12.44,5.58 12.44,12.44 0,6.86 -5.58,12.44 -12.44,12.44 z m 0,-18.88 c -3.55,0 -6.44,2.89 -6.44,6.44 0,3.55 2.89,6.44 6.44,6.44 3.55,0 6.44,-2.89 6.44,-6.44 0,-3.55 -2.89,-6.44 -6.44,-6.44 z"
   id="path4815"
   inkscape:connector-curvature="0"
   style="fill:#ffffff" />
</g>
</svg>