<?xml version="1.0" encoding="utf-8"?>
<!-- Generator: Adobe Illustrator 23.0.1, SVG Export Plug-In . SVG Version: 6.00 Build 0)  -->
<svg version="1.1" id="Calque_1" xmlns="http://www.w3.org/2000/svg" xmlns:xlink="http://www.w3.org/1999/xlink" x="0px" y="0px"
	 viewBox="0 0 1024 768" style="enable-background:new 0 0 1024 768;" xml:space="preserve">
<style type="text/css">
	.st0{fill:#084443;}
	.st1{fill:#FFFFFF;}
	.st2{fill:#00434C;}
	.st3{fill:#02473A;}
	.st4{fill:#00482F;}
	.st5{fill:#004055;}
</style>
<rect y="-0.01" class="st2" width="1024" height="768.01"/>
<g>
	<g>
		<path class="st1" d="M117.33,163.2c0-2.35-1.91-4.26-4.26-4.26c-2.35,0-4.26,1.91-4.26,4.26c0,2.35,1.91,4.26,4.26,4.26
			C115.42,167.46,117.33,165.56,117.33,163.2"/>
		<path class="st1" d="M108.49,167.26c1.12,1.26,2.75,2.06,4.57,2.06s3.45-0.8,4.57-2.06c1.5,1.29,2.44,3.19,2.44,5.32
			c0,0.73-0.03,1.5-0.22,2.16l-3.6,13.04c-0.55,1.8-1.43,3.2-3.2,3.2s-2.65-1.4-3.2-3.2l-3.6-13.04c-0.19-0.67-0.22-1.44-0.22-2.16
			C106.04,170.45,106.99,168.54,108.49,167.26"/>
	</g>
	<path class="st1" d="M152.32,136.77l25.52,20.03v34.18h-10.41v-26.53H156.8v26.53h-30V156.8L152.32,136.77z M137.21,183.33h10.63
		v-18.88h-10.63V183.33z"/>
	<path class="st1" d="M209.89,207.56H73.99V57.41h135.91V207.56z M79.99,201.56h123.91V63.41H79.99V201.56z"/>
	<g>
		<path class="st1" d="M576.84,162.9c0-2.35,1.91-4.26,4.26-4.26c2.35,0,4.26,1.91,4.26,4.26c0,2.35-1.91,4.26-4.26,4.26
			C578.74,167.16,576.84,165.25,576.84,162.9"/>
		<path class="st1" d="M585.67,166.95c-1.12,1.26-2.75,2.06-4.57,2.06s-3.45-0.8-4.57-2.06c-1.5,1.29-2.45,3.19-2.45,5.32
			c0,0.73,0.02,1.5,0.22,2.16l3.6,13.04c0.55,1.8,1.43,3.2,3.2,3.2c1.77,0,2.65-1.4,3.2-3.2l3.6-13.04
			c0.19-0.66,0.22-1.44,0.22-2.16C588.12,170.15,587.17,168.24,585.67,166.95"/>
		<path class="st1" d="M593.1,162.9c0-2.35,1.91-4.26,4.26-4.26c2.35,0,4.26,1.91,4.26,4.26c0,2.35-1.91,4.26-4.26,4.26
			C595.01,167.16,593.1,165.25,593.1,162.9"/>
		<path class="st1" d="M601.94,166.95c-1.12,1.26-2.75,2.06-4.57,2.06s-3.45-0.8-4.57-2.06c-1.5,1.29-2.45,3.19-2.45,5.32
			c0,0.73,0.02,1.5,0.22,2.16l3.6,13.04c0.55,1.8,1.43,3.2,3.2,3.2c1.77,0,2.65-1.4,3.2-3.2l3.6-13.04
			c0.19-0.66,0.22-1.44,0.22-2.16C604.39,170.15,603.44,168.24,601.94,166.95"/>
		<path class="st1" d="M584.97,123.52c0-2.35,1.91-4.26,4.26-4.26c2.35,0,4.26,1.91,4.26,4.26c0,2.35-1.91,4.26-4.26,4.26
			C586.88,127.78,584.97,125.88,584.97,123.52"/>
		<path class="st1" d="M593.81,127.58c-1.12,1.26-2.75,2.06-4.57,2.06s-3.45-0.8-4.57-2.06c-1.5,1.29-2.45,3.19-2.45,5.32
			c0,0.73,0.02,1.5,0.22,2.16l3.6,13.04c0.55,1.8,1.43,3.2,3.2,3.2c1.77,0,2.65-1.4,3.2-3.2l3.6-13.04
			c0.19-0.66,0.22-1.44,0.22-2.16C596.25,130.77,595.3,128.86,593.81,127.58"/>
		<path class="st1" d="M601.24,123.52c0-2.35,1.91-4.26,4.26-4.26c2.35,0,4.26,1.91,4.26,4.26c0,2.35-1.91,4.26-4.26,4.26
			C603.15,127.78,601.24,125.88,601.24,123.52"/>
		<path class="st1" d="M610.08,127.58c-1.12,1.26-2.75,2.06-4.57,2.06s-3.45-0.8-4.57-2.06c-1.5,1.29-2.45,3.19-2.45,5.32
			c0,0.73,0.02,1.5,0.22,2.16l3.6,13.04c0.55,1.8,1.43,3.2,3.2,3.2c1.77,0,2.65-1.4,3.2-3.2l3.6-13.04
			c0.19-0.66,0.22-1.44,0.22-2.16C612.52,130.77,611.57,128.86,610.08,127.58"/>
		<path class="st1" d="M609.37,162.9c0-2.35,1.91-4.26,4.26-4.26c2.35,0,4.26,1.91,4.26,4.26c0,2.35-1.91,4.26-4.26,4.26
			C611.28,167.16,609.37,165.25,609.37,162.9"/>
		<path class="st1" d="M618.21,166.95c-1.12,1.26-2.75,2.06-4.57,2.06s-3.45-0.8-4.57-2.06c-1.5,1.29-2.45,3.19-2.45,5.32
			c0,0.73,0.02,1.5,0.22,2.16l3.6,13.04c0.55,1.8,1.43,3.2,3.2,3.2c1.77,0,2.65-1.4,3.2-3.2l3.6-13.04
			c0.19-0.66,0.22-1.44,0.22-2.16C620.65,170.15,619.71,168.24,618.21,166.95"/>
	</g>
	<path class="st1" d="M209.89,249.07H73.99v-47.51h135.91V249.07z M79.99,243.07h123.91v-35.51H79.99V243.07z"/>
	<path class="st1" d="M567.97,88.44l-25.52-20.03l-25.52,20.03v34.18v34.18v34.18h10.41v-26.53h10.63v26.53h30V156.8v-34.18V88.44z
		 M557.56,183.33h-10.63v-18.88h10.63V183.33z M557.56,149.15h-10.63v-18.88h10.63V149.15z M537.97,149.15h-10.63v-18.88h10.63
		V149.15z M557.56,114.97h-10.63V96.1h10.63V114.97z M537.97,114.97h-10.63V96.1h10.63V114.97z"/>
	<path class="st1" d="M505.46,207.56H203.89v-47.51h301.57V207.56z M209.89,201.56h289.57v-35.51H209.89V201.56z M354.42,195.93
		c-6.86,0-12.44-5.58-12.44-12.44c0-6.86,5.58-12.44,12.44-12.44s12.44,5.58,12.44,12.44C366.85,190.35,361.27,195.93,354.42,195.93
		z M354.42,177.05c-3.55,0-6.44,2.89-6.44,6.44c0,3.55,2.89,6.44,6.44,6.44s6.44-2.89,6.44-6.44
		C360.85,179.94,357.97,177.05,354.42,177.05z M301.34,195.93c-6.86,0-12.44-5.58-12.44-12.44c0-6.86,5.58-12.44,12.44-12.44
		c6.86,0,12.44,5.58,12.44,12.44C313.78,190.35,308.2,195.93,301.34,195.93z M301.34,177.05c-3.55,0-6.44,2.89-6.44,6.44
		c0,3.55,2.89,6.44,6.44,6.44c3.55,0,6.44-2.89,6.44-6.44C307.78,179.94,304.89,177.05,301.34,177.05z M248.26,195.93
		c-6.86,0-12.44-5.58-12.44-12.44c0-6.86,5.58-12.44,12.44-12.44c6.86,0,12.44,5.58,12.44,12.44
		C260.7,190.35,255.12,195.93,248.26,195.93z M248.26,177.05c-3.55,0-6.44,2.89-6.44,6.44c0,3.55,2.89,6.44,6.44,6.44
		c3.55,0,6.44-2.89,6.44-6.44C254.7,179.94,251.81,177.05,248.26,177.05z"/>
	<path class="st1" d="M460.57,195.93c-6.86,0-12.44-5.58-12.44-12.44s5.58-12.44,12.44-12.44s12.44,5.58,12.44,12.44
		S467.43,195.93,460.57,195.93z M460.57,177.05c-3.55,0-6.44,2.89-6.44,6.44s2.89,6.44,6.44,6.44s6.44-2.89,6.44-6.44
		S464.12,177.05,460.57,177.05z M407.49,195.93c-6.86,0-12.44-5.58-12.44-12.44s5.58-12.44,12.44-12.44s12.44,5.58,12.44,12.44
		S414.35,195.93,407.49,195.93z M407.49,177.05c-3.55,0-6.44,2.89-6.44,6.44s2.89,6.44,6.44,6.44s6.44-2.89,6.44-6.44
		S411.04,177.05,407.49,177.05z"/>
	<path class="st1" d="M635.26,447.31H73.99v-47.51h561.28V447.31z M340.38,441.31h288.89v-35.51H340.38V441.31z M79.99,441.31
		h254.39v-35.51H79.99V441.31z M378.74,435.68c-6.86,0-12.44-5.58-12.44-12.44c0-6.86,5.58-12.44,12.44-12.44
		s12.44,5.58,12.44,12.44C391.18,430.1,385.6,435.68,378.74,435.68z M378.74,416.8c-3.55,0-6.44,2.89-6.44,6.44
		c0,3.55,2.89,6.44,6.44,6.44s6.44-2.89,6.44-6.44C385.18,419.69,382.29,416.8,378.74,416.8z M591.05,347.75
		c-6.86,0-12.44-5.58-12.44-12.44s5.58-12.44,12.44-12.44c6.86,0,12.44,5.58,12.44,12.44S597.91,347.75,591.05,347.75z
		 M591.05,328.87c-3.55,0-6.44,2.89-6.44,6.44s2.89,6.44,6.44,6.44c3.55,0,6.44-2.89,6.44-6.44S594.6,328.87,591.05,328.87z
		 M537.97,347.75c-6.86,0-12.44-5.58-12.44-12.44s5.58-12.44,12.44-12.44c6.86,0,12.44,5.58,12.44,12.44
		S544.83,347.75,537.97,347.75z M537.97,328.87c-3.55,0-6.44,2.89-6.44,6.44s2.89,6.44,6.44,6.44c3.55,0,6.44-2.89,6.44-6.44
		S541.52,328.87,537.97,328.87z"/>
	<path class="st1" d="M635.26,535.24H73.99v-47.51h561.28V535.24z M340.38,529.24h288.89v-35.51H340.38V529.24z M79.99,529.24
		h254.39v-35.51H79.99V529.24z M537.97,523.61c-6.86,0-12.44-5.58-12.44-12.44c0-6.86,5.58-12.44,12.44-12.44
		c6.86,0,12.44,5.58,12.44,12.44C550.41,518.03,544.83,523.61,537.97,523.61z M537.97,504.73c-3.55,0-6.44,2.89-6.44,6.44
		c0,3.55,2.89,6.44,6.44,6.44c3.55,0,6.44-2.89,6.44-6.44C544.41,507.62,541.52,504.73,537.97,504.73z M484.9,523.61
		c-6.86,0-12.44-5.58-12.44-12.44c0-6.86,5.58-12.44,12.44-12.44s12.44,5.58,12.44,12.44C497.33,518.03,491.76,523.61,484.9,523.61z
		 M484.9,504.73c-3.55,0-6.44,2.89-6.44,6.44c0,3.55,2.89,6.44,6.44,6.44s6.44-2.89,6.44-6.44
		C491.33,507.62,488.45,504.73,484.9,504.73z M431.82,523.61c-6.86,0-12.44-5.58-12.44-12.44c0-6.86,5.58-12.44,12.44-12.44
		c6.86,0,12.44,5.58,12.44,12.44C444.26,518.03,438.68,523.61,431.82,523.61z M431.82,504.73c-3.55,0-6.44,2.89-6.44,6.44
		c0,3.55,2.89,6.44,6.44,6.44c3.55,0,6.44-2.89,6.44-6.44C438.26,507.62,435.37,504.73,431.82,504.73z M378.74,523.61
		c-6.86,0-12.44-5.58-12.44-12.44c0-6.86,5.58-12.44,12.44-12.44s12.44,5.58,12.44,12.44C391.18,518.03,385.6,523.61,378.74,523.61z
		 M378.74,504.73c-3.55,0-6.44,2.89-6.44,6.44c0,3.55,2.89,6.44,6.44,6.44s6.44-2.89,6.44-6.44
		C385.18,507.62,382.29,504.73,378.74,504.73z M591.05,435.68c-6.86,0-12.44-5.58-12.44-12.44s5.58-12.44,12.44-12.44
		s12.44,5.58,12.44,12.44S597.91,435.68,591.05,435.68z M591.05,416.8c-3.55,0-6.44,2.89-6.44,6.44s2.89,6.44,6.44,6.44
		s6.44-2.89,6.44-6.44S594.6,416.8,591.05,416.8z M537.97,435.68c-6.86,0-12.44-5.58-12.44-12.44s5.58-12.44,12.44-12.44
		c6.86,0,12.44,5.58,12.44,12.44S544.83,435.68,537.97,435.68z M537.97,416.8c-3.55,0-6.44,2.89-6.44,6.44s2.89,6.44,6.44,6.44
		c3.55,0,6.44-2.89,6.44-6.44S541.52,416.8,537.97,416.8z M484.9,435.68c-6.86,0-12.44-5.58-12.44-12.44s5.58-12.44,12.44-12.44
		s12.44,5.58,12.44,12.44S491.76,435.68,484.9,435.68z M484.9,416.8c-3.55,0-6.44,2.89-6.44,6.44s2.89,6.44,6.44,6.44
		s6.44-2.89,6.44-6.44S488.45,416.8,484.9,416.8z M431.82,435.68c-6.86,0-12.44-5.58-12.44-12.44s5.58-12.44,12.44-12.44
		c6.86,0,12.44,5.58,12.44,12.44S438.68,435.68,431.82,435.68z M431.82,416.8c-3.55,0-6.44,2.89-6.44,6.44s2.89,6.44,6.44,6.44
		c3.55,0,6.44-2.89,6.44-6.44S435.37,416.8,431.82,416.8z"/>
	<path class="st1" d="M635.26,623.17H73.99v-47.51h561.28V623.17z M340.38,617.17h288.89v-35.51H340.38V617.17z M79.99,617.17
		h254.39v-35.51H79.99V617.17z M378.75,611.54c-6.86,0-12.44-5.58-12.44-12.44s5.58-12.44,12.44-12.44
		c6.86,0,12.44,5.58,12.44,12.44S385.6,611.54,378.75,611.54z M378.75,592.67c-3.55,0-6.44,2.89-6.44,6.44s2.89,6.44,6.44,6.44
		c3.55,0,6.44-2.89,6.44-6.44S382.29,592.67,378.75,592.67z M591.05,523.61c-6.86,0-12.44-5.58-12.44-12.44
		c0-6.86,5.58-12.44,12.44-12.44c6.86,0,12.44,5.58,12.44,12.44C603.49,518.03,597.91,523.61,591.05,523.61z M591.05,504.73
		c-3.55,0-6.44,2.89-6.44,6.44c0,3.55,2.89,6.44,6.44,6.44c3.55,0,6.44-2.89,6.44-6.44C597.49,507.62,594.6,504.73,591.05,504.73z"
		/>
	<path class="st1" d="M635.26,711.1H73.99v-47.51h561.28V711.1z M340.38,705.1h288.89v-35.51H340.38V705.1z M79.99,705.1h254.39
		v-35.51H79.99V705.1z M378.74,699.48c-6.86,0-12.44-5.58-12.44-12.44c0-6.86,5.58-12.44,12.44-12.44s12.44,5.58,12.44,12.44
		C391.18,693.9,385.6,699.48,378.74,699.48z M378.74,680.6c-3.55,0-6.44,2.89-6.44,6.44c0,3.55,2.89,6.44,6.44,6.44
		s6.44-2.89,6.44-6.44C385.18,683.49,382.29,680.6,378.74,680.6z M591.05,611.54c-6.86,0-12.44-5.58-12.44-12.44
		s5.58-12.44,12.44-12.44s12.44,5.58,12.44,12.44S597.91,611.54,591.05,611.54z M591.05,592.67c-3.55,0-6.44,2.89-6.44,6.44
		s2.89,6.44,6.44,6.44s6.44-2.89,6.44-6.44S594.6,592.67,591.05,592.67z M537.97,611.54c-6.86,0-12.44-5.58-12.44-12.44
		s5.58-12.44,12.44-12.44c6.86,0,12.44,5.58,12.44,12.44S544.83,611.54,537.97,611.54z M537.97,592.67c-3.55,0-6.44,2.89-6.44,6.44
		s2.89,6.44,6.44,6.44c3.55,0,6.44-2.89,6.44-6.44S541.52,592.67,537.97,592.67z M484.9,611.54c-6.86,0-12.44-5.58-12.44-12.44
		s5.58-12.44,12.44-12.44s12.44,5.58,12.44,12.44S491.76,611.54,484.9,611.54z M484.9,592.67c-3.55,0-6.44,2.89-6.44,6.44
		s2.89,6.44,6.44,6.44s6.44-2.89,6.44-6.44S488.45,592.67,484.9,592.67z M431.82,611.54c-6.86,0-12.44-5.58-12.44-12.44
		s5.58-12.44,12.44-12.44c6.86,0,12.44,5.58,12.44,12.44S438.68,611.54,431.82,611.54z M431.82,592.67c-3.55,0-6.44,2.89-6.44,6.44
		s2.89,6.44,6.44,6.44c3.55,0,6.44-2.89,6.44-6.44S435.37,592.67,431.82,592.67z"/>
	<path class="st1" d="M591.05,699.48c-6.86,0-12.44-5.58-12.44-12.44s5.58-12.44,12.44-12.44s12.44,5.58,12.44,12.44
		S597.91,699.48,591.05,699.48z M591.05,680.6c-3.55,0-6.44,2.89-6.44,6.44s2.89,6.44,6.44,6.44s6.44-2.89,6.44-6.44
		S594.6,680.6,591.05,680.6z M537.97,699.48c-6.86,0-12.44-5.58-12.44-12.44s5.58-12.44,12.44-12.44c6.86,0,12.44,5.58,12.44,12.44
		S544.83,699.48,537.97,699.48z M537.97,680.6c-3.55,0-6.44,2.89-6.44,6.44s2.89,6.44,6.44,6.44c3.55,0,6.44-2.89,6.44-6.44
		S541.52,680.6,537.97,680.6z M484.9,699.48c-6.86,0-12.44-5.58-12.44-12.44s5.58-12.44,12.44-12.44s12.44,5.58,12.44,12.44
		S491.76,699.48,484.9,699.48z M484.9,680.6c-3.55,0-6.44,2.89-6.44,6.44s2.89,6.44,6.44,6.44s6.44-2.89,6.44-6.44
		S488.45,680.6,484.9,680.6z M431.82,699.48c-6.86,0-12.44-5.58-12.44-12.44s5.58-12.44,12.44-12.44c6.86,0,12.44,5.58,12.44,12.44
		S438.68,699.48,431.82,699.48z M431.82,680.6c-3.55,0-6.44,2.89-6.44,6.44s2.89,6.44,6.44,6.44c3.55,0,6.44-2.89,6.44-6.44
		S435.37,680.6,431.82,680.6z"/>
	<path class="st1" d="M99.21,333.88c0.32-0.36,0.48-0.88,0.48-1.57c0-0.68-0.21-1.17-0.62-1.46c-0.41-0.29-1.06-0.43-1.93-0.43
		h-1.51v3.99h1.78C98.3,334.42,98.9,334.24,99.21,333.88 M101.16,329.21c0.83,0.71,1.25,1.8,1.25,3.26c0,1.47-0.43,2.54-1.28,3.22
		c-0.86,0.68-2.16,1.02-3.92,1.02h-1.58v3.32h-2.65v-11.88h4.2C99,328.15,100.33,328.5,101.16,329.21"/>
	<path class="st1" d="M113.58,334.02c0-1.06-0.34-1.96-1.02-2.71c-0.68-0.75-1.52-1.12-2.51-1.12c-0.99,0-1.83,0.37-2.51,1.12
		c-0.68,0.75-1.02,1.65-1.02,2.71s0.34,1.96,1.02,2.7s1.52,1.11,2.51,1.11c0.99,0,1.83-0.37,2.51-1.11S113.58,335.08,113.58,334.02
		 M114.48,338.39c-1.2,1.17-2.68,1.76-4.44,1.76c-1.76,0-3.24-0.59-4.44-1.76c-1.2-1.17-1.8-2.63-1.8-4.38s0.6-3.2,1.8-4.38
		c1.2-1.17,2.68-1.76,4.44-1.76c1.76,0,3.24,0.59,4.44,1.76c1.2,1.17,1.8,2.63,1.8,4.38S115.68,337.22,114.48,338.39"/>
	<polygon class="st1" points="118.52,340.03 118.52,328.15 121.18,328.15 121.18,337.67 126.24,337.67 126.24,340.03 	"/>
	<polygon class="st1" points="128.18,340.03 128.18,328.15 130.83,328.15 130.83,337.67 135.9,337.67 135.9,340.03 	"/>
	<g>
		<path class="st1" d="M140.73,336.96c0.44,0.55,1.04,0.82,1.78,0.82c0.75,0,1.34-0.27,1.78-0.82c0.43-0.55,0.65-1.3,0.65-2.25
			v-6.56h2.65v6.65c0,1.72-0.48,3.05-1.43,3.97c-0.95,0.92-2.17,1.39-3.65,1.39c-1.48,0-2.7-0.46-3.66-1.39
			c-0.96-0.93-1.44-2.25-1.44-3.96v-6.65h2.65v6.56C140.06,335.66,140.29,336.41,140.73,336.96"/>
	</g>
	<polygon class="st1" points="155.38,330.44 155.38,340.03 152.73,340.03 152.73,330.44 149.36,330.44 149.36,328.15 158.75,328.15 
		158.75,330.44 	"/>
	<rect x="160.68" y="328.15" class="st1" width="2.65" height="11.88"/>
	<g>
		<path class="st1" d="M175.36,334.02c0-1.06-0.34-1.96-1.02-2.71c-0.68-0.75-1.52-1.12-2.51-1.12c-0.99,0-1.83,0.37-2.51,1.12
			c-0.68,0.75-1.02,1.65-1.02,2.71s0.34,1.96,1.02,2.7c0.68,0.74,1.52,1.11,2.51,1.11c0.99,0,1.83-0.37,2.51-1.11
			C175.02,335.98,175.36,335.08,175.36,334.02 M176.26,338.39c-1.2,1.17-2.68,1.76-4.44,1.76c-1.76,0-3.24-0.59-4.44-1.76
			c-1.2-1.17-1.8-2.63-1.8-4.38s0.6-3.2,1.8-4.38s2.68-1.76,4.44-1.76c1.76,0,3.24,0.59,4.44,1.76c1.2,1.17,1.8,2.63,1.8,4.38
			S177.46,337.22,176.26,338.39"/>
	</g>
	<polygon class="st1" points="188.62,328.15 191.27,328.15 191.27,340.03 188.62,340.03 182.96,332.58 182.96,340.03 180.3,340.03 
		180.3,328.15 182.79,328.15 188.62,335.8 	"/>
	<g>
		<path class="st1" d="M201.46,330.52c-0.26,0.21-0.38,0.49-0.38,0.83c0,0.35,0.15,0.62,0.47,0.83c0.31,0.2,1.03,0.45,2.16,0.72
			c1.13,0.28,2,0.69,2.63,1.25c0.62,0.56,0.94,1.37,0.94,2.43c0,1.07-0.4,1.93-1.2,2.59c-0.8,0.66-1.85,0.99-3.15,0.99
			c-1.88,0-3.58-0.7-5.08-2.09l1.58-1.94c1.28,1.12,2.46,1.68,3.55,1.68c0.49,0,0.87-0.1,1.15-0.31c0.28-0.21,0.42-0.49,0.42-0.85
			c0-0.36-0.15-0.64-0.44-0.85c-0.3-0.21-0.88-0.42-1.75-0.64c-1.38-0.33-2.4-0.76-3.04-1.28c-0.64-0.53-0.96-1.35-0.96-2.48
			c0-1.13,0.4-2,1.22-2.61c0.81-0.61,1.82-0.92,3.03-0.92c0.79,0,1.59,0.14,2.38,0.41s1.48,0.66,2.07,1.16l-1.34,1.94
			c-1.03-0.78-2.1-1.17-3.2-1.17C202.06,330.2,201.71,330.31,201.46,330.52"/>
		<path class="st1" d="M218.62,334.02c0-1.06-0.34-1.96-1.02-2.71c-0.68-0.75-1.52-1.12-2.51-1.12c-0.99,0-1.83,0.37-2.51,1.12
			c-0.68,0.75-1.02,1.65-1.02,2.71s0.34,1.96,1.02,2.7c0.68,0.74,1.52,1.11,2.51,1.11c0.99,0,1.83-0.37,2.51-1.11
			C218.28,335.98,218.62,335.08,218.62,334.02 M219.52,338.39c-1.2,1.17-2.68,1.76-4.44,1.76c-1.76,0-3.24-0.59-4.44-1.76
			c-1.2-1.17-1.8-2.63-1.8-4.38s0.6-3.2,1.8-4.38s2.68-1.76,4.44-1.76c1.76,0,3.24,0.59,4.44,1.76c1.2,1.17,1.8,2.63,1.8,4.38
			S220.72,337.22,219.52,338.39"/>
	</g>
	<polygon class="st1" points="231.88,328.15 234.53,328.15 234.53,340.03 231.88,340.03 226.22,332.58 226.22,340.03 223.57,340.03 
		223.57,328.15 226.05,328.15 231.88,335.8 	"/>
	<g>
		<path class="st1" d="M246.55,334.02c0-1.06-0.34-1.96-1.02-2.71c-0.68-0.75-1.52-1.12-2.51-1.12c-0.99,0-1.83,0.37-2.51,1.12
			c-0.68,0.75-1.02,1.65-1.02,2.71s0.34,1.96,1.02,2.7c0.68,0.74,1.52,1.11,2.51,1.11c0.99,0,1.83-0.37,2.51-1.11
			C246.21,335.98,246.55,335.08,246.55,334.02 M247.45,338.39c-1.2,1.17-2.68,1.76-4.44,1.76c-1.76,0-3.24-0.59-4.44-1.76
			c-1.2-1.17-1.8-2.63-1.8-4.38s0.6-3.2,1.8-4.38s2.68-1.76,4.44-1.76c1.76,0,3.24,0.59,4.44,1.76c1.2,1.17,1.8,2.63,1.8,4.38
			S248.65,337.22,247.45,338.39"/>
		<path class="st1" d="M257.94,333.5c0.33-0.29,0.49-0.76,0.49-1.4c0-0.64-0.17-1.08-0.51-1.32c-0.34-0.24-0.93-0.36-1.78-0.36
			h-1.99v3.52h1.94C256.99,333.94,257.61,333.8,257.94,333.5 M261.14,332.09c0,1.9-0.75,3.14-2.26,3.69l3.01,4.25h-3.26l-2.63-3.79
			h-1.84v3.79h-2.65v-11.88H256c1.85,0,3.17,0.31,3.95,0.93C260.74,329.7,261.14,330.71,261.14,332.09"/>
	</g>
	<polygon class="st1" points="272.42,328.15 272.42,330.51 266.51,330.51 266.51,332.96 271.83,332.96 271.83,335.22 266.51,335.22 
		266.51,337.68 272.61,337.68 272.61,340.03 263.86,340.03 263.86,328.15 	"/>
	<rect x="92.39" y="217.84" class="st1" width="2.65" height="11.88"/>
	<polygon class="st1" points="106.28,217.84 108.93,217.84 108.93,229.72 106.28,229.72 100.62,222.28 100.62,229.72 97.96,229.72 
		97.96,217.84 100.45,217.84 106.28,225.49 	"/>
	<g>
		<path class="st1" d="M118.98,226.46c0.65-0.61,0.98-1.5,0.98-2.67c0-1.17-0.33-2.07-0.98-2.7c-0.65-0.63-1.65-0.94-3-0.94h-1.48
			v7.22h1.68C117.4,227.38,118.33,227.07,118.98,226.46 M120.93,219.4c1.13,1.04,1.7,2.48,1.7,4.33c0,1.85-0.55,3.31-1.66,4.39
			c-1.1,1.08-2.79,1.61-5.06,1.61h-4.06v-11.88h4.2C118.17,217.84,119.8,218.36,120.93,219.4"/>
	</g>
	<rect x="124.93" y="217.84" class="st1" width="2.65" height="11.88"/>
	<polygon class="st1" points="134.89,225.41 137.91,217.84 140.79,217.84 136.01,229.72 133.77,229.72 128.99,217.84 131.86,217.84 
			"/>
	<rect x="142.2" y="217.84" class="st1" width="2.65" height="11.88"/>
	<g>
		<path class="st1" d="M154.91,226.46c0.65-0.61,0.98-1.5,0.98-2.67c0-1.17-0.33-2.07-0.98-2.7c-0.65-0.63-1.65-0.94-3-0.94h-1.48
			v7.22h1.68C153.32,227.38,154.25,227.07,154.91,226.46 M156.85,219.4c1.13,1.04,1.7,2.48,1.7,4.33c0,1.85-0.55,3.31-1.66,4.39
			c-1.1,1.08-2.79,1.61-5.06,1.61h-4.06v-11.88h4.2C154.09,217.84,155.72,218.36,156.85,219.4"/>
		<path class="st1" d="M163.99,226.66c0.44,0.55,1.04,0.82,1.78,0.82s1.34-0.27,1.78-0.82c0.43-0.55,0.65-1.3,0.65-2.25v-6.56h2.65
			v6.65c0,1.72-0.47,3.05-1.43,3.97c-0.95,0.92-2.17,1.39-3.65,1.39c-1.48,0-2.71-0.47-3.66-1.4c-0.96-0.93-1.44-2.25-1.44-3.96
			v-6.65h2.65v6.56C163.33,225.35,163.55,226.11,163.99,226.66"/>
	</g>
	<polygon class="st1" points="182.18,217.84 182.18,220.2 176.27,220.2 176.27,222.65 181.59,222.65 181.59,224.91 176.27,224.91 
		176.27,227.38 182.37,227.38 182.37,229.72 173.61,229.72 173.61,217.84 	"/>
	<polygon class="st1" points="184.73,229.72 184.73,217.84 187.38,217.84 187.38,227.36 192.45,227.36 192.45,229.72 	"/>
	<g>
		<path class="st1" d="M523.88,227.38c1.3,0,2.37-0.52,3.2-1.55l1.7,1.75c-1.35,1.52-2.94,2.28-4.77,2.28
			c-1.83,0-3.34-0.58-4.52-1.73c-1.18-1.16-1.78-2.61-1.78-4.38c0-1.76,0.6-3.23,1.81-4.41c1.21-1.18,2.68-1.77,4.43-1.77
			c1.95,0,3.58,0.74,4.9,2.23l-1.65,1.87c-0.84-1.04-1.88-1.56-3.13-1.56c-1,0-1.85,0.33-2.56,0.98c-0.71,0.65-1.06,1.53-1.06,2.64
			c0,1.1,0.33,1.99,1,2.66C522.11,227.04,522.92,227.38,523.88,227.38"/>
		<path class="st1" d="M539.7,223.71c0-1.06-0.34-1.96-1.02-2.71s-1.52-1.12-2.51-1.12c-0.99,0-1.83,0.37-2.51,1.12
			c-0.68,0.75-1.02,1.65-1.02,2.71s0.34,1.96,1.02,2.7c0.68,0.74,1.52,1.11,2.51,1.11c0.99,0,1.83-0.37,2.51-1.11
			S539.7,224.77,539.7,223.71 M540.6,228.08c-1.2,1.17-2.68,1.76-4.44,1.76c-1.76,0-3.24-0.59-4.44-1.76
			c-1.2-1.17-1.8-2.63-1.8-4.38s0.6-3.21,1.8-4.38c1.2-1.17,2.68-1.76,4.44-1.76c1.76,0,3.24,0.59,4.44,1.76
			c1.2,1.17,1.8,2.63,1.8,4.38S541.8,226.91,540.6,228.08"/>
	</g>
	<polygon class="st1" points="544.65,229.72 544.65,217.84 547.3,217.84 547.3,227.36 552.37,227.36 552.37,229.72 	"/>
	<polygon class="st1" points="554.31,229.72 554.31,217.84 556.96,217.84 556.96,227.36 562.02,227.36 562.02,229.72 	"/>
	<polygon class="st1" points="572.53,217.84 572.53,220.2 566.61,220.2 566.61,222.65 571.93,222.65 571.93,224.91 566.61,224.91 
		566.61,227.38 572.72,227.38 572.72,229.72 563.96,229.72 563.96,217.84 	"/>
	<g>
		<path class="st1" d="M580.54,227.38c1.3,0,2.37-0.52,3.2-1.55l1.7,1.75c-1.35,1.52-2.94,2.28-4.77,2.28
			c-1.83,0-3.34-0.58-4.52-1.73c-1.18-1.16-1.78-2.61-1.78-4.38c0-1.76,0.6-3.23,1.81-4.41c1.21-1.18,2.68-1.77,4.43-1.77
			c1.95,0,3.58,0.74,4.9,2.23l-1.65,1.87c-0.84-1.04-1.88-1.56-3.13-1.56c-1,0-1.85,0.33-2.56,0.98c-0.71,0.65-1.06,1.53-1.06,2.64
			c0,1.1,0.33,1.99,1,2.66C578.77,227.04,579.59,227.38,580.54,227.38"/>
	</g>
	<polygon class="st1" points="592.56,220.14 592.56,229.72 589.9,229.72 589.9,220.14 586.54,220.14 586.54,217.84 595.92,217.84 
		595.92,220.14 	"/>
	<rect x="597.86" y="217.84" class="st1" width="2.65" height="11.88"/>
	<polygon class="st1" points="611.6,217.84 611.6,220.17 606.09,220.17 606.09,222.74 611.32,222.74 611.32,225.07 606.09,225.07 
		606.09,229.72 603.44,229.72 603.44,217.84 	"/>
	<polygon class="st1" points="98.01,418.37 98.01,427.96 95.35,427.96 95.35,418.37 91.99,418.37 91.99,416.08 101.37,416.08 
		101.37,418.37 	"/>
	<path class="st1" d="M107.32,419.61l-1.5,3.45h2.98L107.32,419.61z M110.91,427.96l-1.1-2.57h-4.98l-1.1,2.57h-2.82l5.13-11.88
		h2.57l5.13,11.88H110.91z"/>
	<g>
		<path class="st1" d="M117.93,424.89c0.44,0.55,1.04,0.82,1.78,0.82s1.34-0.27,1.78-0.82c0.43-0.55,0.65-1.3,0.65-2.25v-6.56h2.65
			v6.65c0,1.72-0.47,3.05-1.43,3.97c-0.95,0.92-2.17,1.39-3.65,1.39c-1.48,0-2.71-0.46-3.66-1.39c-0.96-0.93-1.44-2.25-1.44-3.96
			v-6.65h2.65v6.56C117.27,423.59,117.49,424.34,117.93,424.89"/>
	</g>
	<polygon class="st1" points="134.23,416.08 137.43,416.08 133.72,421.81 137.73,427.96 134.5,427.96 131.97,424.05 129.46,427.96 
		126.26,427.96 130.25,421.88 126.53,416.08 129.71,416.08 131.97,419.6 	"/>
	<g>
		<path class="st1" d="M150.99,424.7c0.65-0.61,0.98-1.5,0.98-2.67c0-1.17-0.33-2.07-0.98-2.7c-0.65-0.63-1.65-0.94-3-0.94h-1.48
			v7.23h1.68C149.4,425.62,150.33,425.31,150.99,424.7 M152.93,417.63c1.13,1.04,1.7,2.48,1.7,4.33c0,1.85-0.55,3.31-1.66,4.39
			c-1.1,1.08-2.79,1.62-5.06,1.62h-4.06v-11.88h4.2C150.17,416.08,151.8,416.6,152.93,417.63"/>
		<path class="st1" d="M156.69,418.56c-0.37-0.25-0.56-0.6-0.56-1.04c0-0.45,0.13-0.8,0.4-1.06c0.27-0.26,0.6-0.39,1-0.39
			c0.4,0,0.74,0.12,1,0.37c0.27,0.25,0.4,0.57,0.4,0.97c0,0.4-0.12,0.79-0.37,1.17l-1.24,1.8h-1.39L156.69,418.56z"/>
	</g>
	<polygon class="st1" points="169.58,416.08 169.58,418.44 163.66,418.44 163.66,420.89 168.98,420.89 168.98,423.15 163.66,423.15 
		163.66,425.62 169.76,425.62 169.76,427.96 161.01,427.96 161.01,416.08 	"/>
	<polygon class="st1" points="182.77,420.48 179.55,426.98 177.97,426.98 174.78,420.48 174.78,427.96 172.13,427.96 172.13,416.08 
		175.71,416.08 178.77,422.61 181.85,416.08 185.42,416.08 185.42,427.96 182.77,427.96 	"/>
	<g>
		<path class="st1" d="M191,425.72h1.82c0.76,0,1.33-0.09,1.71-0.28c0.38-0.19,0.57-0.56,0.57-1.11c0-0.55-0.2-0.91-0.6-1.09
			c-0.4-0.18-1.05-0.26-1.93-0.26H191V425.72z M191,420.89h1.26c0.74,0,1.28-0.08,1.64-0.24c0.36-0.16,0.53-0.5,0.53-1.03
			c0-0.53-0.16-0.88-0.49-1.04c-0.33-0.17-0.88-0.26-1.67-0.26H191V420.89z M193.55,427.96h-5.2v-11.88h4.62
			c0.8,0,1.5,0.1,2.08,0.29c0.58,0.19,1.02,0.45,1.32,0.78c0.53,0.61,0.8,1.3,0.8,2.07c0,0.93-0.3,1.62-0.9,2.07
			c-0.2,0.16-0.35,0.26-0.42,0.3c-0.08,0.04-0.22,0.1-0.43,0.2c0.74,0.16,1.32,0.49,1.76,0.99c0.43,0.5,0.65,1.13,0.65,1.88
			c0,0.83-0.28,1.56-0.85,2.19C196.32,427.59,195.18,427.96,193.55,427.96"/>
		<path class="st1" d="M209.15,421.95c0-1.06-0.34-1.96-1.02-2.71c-0.68-0.75-1.52-1.12-2.51-1.12c-0.99,0-1.83,0.37-2.51,1.12
			c-0.68,0.75-1.02,1.65-1.02,2.71s0.34,1.96,1.02,2.7c0.68,0.74,1.52,1.11,2.51,1.11c0.99,0,1.83-0.37,2.51-1.11
			C208.81,423.91,209.15,423.01,209.15,421.95 M210.05,426.32c-1.2,1.17-2.68,1.76-4.44,1.76c-1.76,0-3.24-0.59-4.44-1.76
			c-1.2-1.17-1.8-2.63-1.8-4.38s0.6-3.2,1.8-4.38s2.68-1.76,4.44-1.76c1.76,0,3.24,0.59,4.44,1.76c1.2,1.17,1.8,2.63,1.8,4.38
			S211.25,425.15,210.05,426.32"/>
		<path class="st1" d="M217.24,424.89c0.44,0.55,1.04,0.82,1.78,0.82s1.34-0.27,1.78-0.82c0.43-0.55,0.65-1.3,0.65-2.25v-6.56h2.65
			v6.65c0,1.72-0.47,3.05-1.43,3.97c-0.95,0.92-2.17,1.39-3.65,1.39c-1.48,0-2.71-0.46-3.66-1.39c-0.96-0.93-1.44-2.25-1.44-3.96
			v-6.65h2.65v6.56C216.58,423.59,216.8,424.34,217.24,424.89"/>
	</g>
	<polygon class="st1" points="231.9,418.37 231.9,427.96 229.25,427.96 229.25,418.37 225.88,418.37 225.88,416.08 235.26,416.08 
		235.26,418.37 	"/>
	<polygon class="st1" points="245.77,416.08 245.77,418.44 239.85,418.44 239.85,420.89 245.17,420.89 245.17,423.15 239.85,423.15 
		239.85,425.62 245.96,425.62 245.96,427.96 237.2,427.96 237.2,416.08 	"/>
	<rect x="248.32" y="416.08" class="st1" width="2.65" height="11.88"/>
	<polygon class="st1" points="253.9,427.96 253.9,416.08 256.55,416.08 256.55,425.6 261.61,425.6 261.61,427.96 	"/>
	<polygon class="st1" points="263.55,427.96 263.55,416.08 266.2,416.08 266.2,425.6 271.27,425.6 271.27,427.96 	"/>
	<path class="st1" d="M278.09,419.61l-1.5,3.45h2.98L278.09,419.61z M281.67,427.96l-1.1-2.57h-4.98l-1.1,2.57h-2.82l5.13-11.88
		h2.57l5.13,11.88H281.67z"/>
	<g>
		<path class="st1" d="M293.59,421.91h2.67v4.22c-1.18,1.31-2.81,1.97-4.9,1.97c-1.74,0-3.21-0.58-4.39-1.73
			c-1.19-1.16-1.78-2.61-1.78-4.38c0-1.76,0.6-3.23,1.81-4.41c1.21-1.18,2.66-1.77,4.37-1.77c1.71,0,3.19,0.56,4.45,1.68l-1.38,1.99
			c-0.53-0.46-1.02-0.78-1.47-0.96c-0.45-0.17-0.93-0.26-1.45-0.26c-1.01,0-1.86,0.34-2.55,1.03c-0.69,0.69-1.04,1.59-1.04,2.71
			c0,1.12,0.33,2.02,0.99,2.69c0.66,0.67,1.45,1.01,2.37,1.01s1.68-0.18,2.3-0.53V421.91z"/>
	</g>
	<polygon class="st1" points="307.19,416.08 307.19,418.44 301.28,418.44 301.28,420.89 306.6,420.89 306.6,423.15 301.28,423.15 
		301.28,425.62 307.38,425.62 307.38,427.96 298.62,427.96 298.62,416.08 	"/>
	<g>
		<path class="st1" d="M312.52,418.45c-0.26,0.21-0.38,0.49-0.38,0.83c0,0.35,0.15,0.62,0.47,0.83c0.31,0.2,1.03,0.45,2.16,0.72
			c1.13,0.28,2,0.69,2.63,1.25c0.62,0.56,0.94,1.37,0.94,2.43c0,1.07-0.4,1.93-1.2,2.59c-0.8,0.66-1.85,0.99-3.15,0.99
			c-1.88,0-3.58-0.7-5.08-2.09l1.58-1.94c1.28,1.12,2.46,1.68,3.55,1.68c0.49,0,0.87-0.1,1.15-0.31c0.28-0.21,0.42-0.49,0.42-0.85
			c0-0.36-0.15-0.64-0.44-0.85c-0.3-0.21-0.88-0.42-1.75-0.64c-1.38-0.33-2.39-0.76-3.04-1.28c-0.64-0.53-0.96-1.35-0.96-2.48
			c0-1.13,0.4-2,1.22-2.61c0.81-0.61,1.82-0.92,3.03-0.92c0.79,0,1.59,0.14,2.38,0.41s1.48,0.66,2.07,1.16l-1.34,1.94
			c-1.03-0.78-2.1-1.17-3.2-1.17C313.12,418.14,312.78,418.24,312.52,418.45"/>
	</g>
	<polygon class="st1" points="101.54,504.01 101.54,506.38 95.63,506.38 95.63,508.82 100.95,508.82 100.95,511.08 95.63,511.08 
		95.63,513.55 101.73,513.55 101.73,515.9 92.97,515.9 92.97,504.01 	"/>
	<g>
		<path class="st1" d="M106.87,506.38c-0.26,0.21-0.38,0.49-0.38,0.83c0,0.35,0.15,0.62,0.47,0.83c0.31,0.2,1.03,0.45,2.16,0.72
			c1.13,0.28,2,0.69,2.63,1.25c0.62,0.56,0.94,1.37,0.94,2.43c0,1.07-0.4,1.93-1.2,2.59c-0.8,0.66-1.85,0.99-3.15,0.99
			c-1.88,0-3.58-0.7-5.08-2.09l1.58-1.94c1.28,1.12,2.47,1.68,3.55,1.68c0.49,0,0.87-0.1,1.15-0.32c0.28-0.21,0.42-0.49,0.42-0.85
			c0-0.36-0.15-0.64-0.44-0.85c-0.3-0.21-0.88-0.42-1.75-0.64c-1.38-0.33-2.4-0.76-3.04-1.28c-0.64-0.53-0.96-1.35-0.96-2.48
			c0-1.13,0.4-2,1.22-2.61c0.81-0.61,1.82-0.92,3.03-0.92c0.79,0,1.59,0.14,2.38,0.41s1.48,0.66,2.07,1.16l-1.34,1.94
			c-1.03-0.78-2.1-1.17-3.2-1.17C107.48,506.07,107.13,506.17,106.87,506.38"/>
		<path class="st1" d="M121.18,509.75c0.32-0.36,0.48-0.88,0.48-1.57c0-0.68-0.21-1.17-0.62-1.46c-0.41-0.29-1.06-0.43-1.93-0.43
			h-1.51v3.99h1.79C120.26,510.28,120.86,510.11,121.18,509.75 M123.12,505.07c0.83,0.71,1.25,1.8,1.25,3.26
			c0,1.47-0.43,2.54-1.28,3.22c-0.86,0.68-2.16,1.02-3.92,1.02h-1.58v3.32h-2.65v-11.88h4.2
			C120.96,504.01,122.29,504.37,123.12,505.07"/>
	</g>
	<path class="st1" d="M130.63,507.55l-1.5,3.45h2.98L130.63,507.55z M134.22,515.9l-1.1-2.57h-4.98l-1.1,2.57h-2.82l5.13-11.88h2.57
		l5.13,11.88H134.22z"/>
	<g>
		<path class="st1" d="M143.87,513.55c1.3,0,2.37-0.52,3.2-1.55l1.7,1.75c-1.35,1.52-2.94,2.28-4.77,2.28
			c-1.83,0-3.34-0.58-4.52-1.73c-1.18-1.16-1.78-2.61-1.78-4.38c0-1.76,0.6-3.23,1.81-4.41s2.68-1.77,4.43-1.77
			c1.95,0,3.58,0.74,4.9,2.23l-1.65,1.87c-0.84-1.04-1.88-1.56-3.13-1.56c-1,0-1.85,0.33-2.56,0.98c-0.71,0.65-1.06,1.53-1.06,2.64
			c0,1.1,0.33,1.99,1,2.66C142.11,513.22,142.92,513.55,143.87,513.55"/>
	</g>
	<polygon class="st1" points="159.43,504.01 159.43,506.38 153.51,506.38 153.51,508.82 158.83,508.82 158.83,511.08 153.51,511.08 
		153.51,513.55 159.61,513.55 159.61,515.9 150.86,515.9 150.86,504.01 	"/>
	<g>
		<path class="st1" d="M172.71,509.75c0.32-0.36,0.48-0.88,0.48-1.57c0-0.68-0.21-1.17-0.62-1.46c-0.41-0.29-1.06-0.43-1.93-0.43
			h-1.51v3.99h1.79C171.79,510.28,172.39,510.11,172.71,509.75 M174.65,505.07c0.83,0.71,1.25,1.8,1.25,3.26
			c0,1.47-0.43,2.54-1.28,3.22c-0.86,0.68-2.16,1.02-3.92,1.02h-1.58v3.32h-2.65v-11.88h4.2
			C172.49,504.01,173.82,504.37,174.65,505.07"/>
	</g>
	<polygon class="st1" points="186.54,504.01 186.54,506.38 180.63,506.38 180.63,508.82 185.95,508.82 185.95,511.08 180.63,511.08 
		180.63,513.55 186.73,513.55 186.73,515.9 177.98,515.9 177.98,504.01 	"/>
	<g>
		<path class="st1" d="M195.54,509.37c0.33-0.29,0.49-0.76,0.49-1.4c0-0.64-0.17-1.08-0.51-1.32c-0.34-0.24-0.93-0.36-1.78-0.36
			h-1.99v3.52h1.94C194.59,509.81,195.21,509.66,195.54,509.37 M198.73,507.96c0,1.9-0.75,3.14-2.26,3.69l3.01,4.25h-3.26
			l-2.63-3.79h-1.84v3.79h-2.65v-11.88h4.51c1.85,0,3.16,0.31,3.95,0.93C198.34,505.57,198.73,506.57,198.73,507.96"/>
		<path class="st1" d="M204.23,506.38c-0.26,0.21-0.38,0.49-0.38,0.83c0,0.35,0.15,0.62,0.47,0.83c0.31,0.2,1.03,0.45,2.16,0.72
			c1.13,0.28,2,0.69,2.63,1.25c0.62,0.56,0.94,1.37,0.94,2.43c0,1.07-0.4,1.93-1.2,2.59c-0.8,0.66-1.85,0.99-3.15,0.99
			c-1.88,0-3.58-0.7-5.08-2.09l1.58-1.94c1.28,1.12,2.46,1.68,3.55,1.68c0.49,0,0.87-0.1,1.15-0.32c0.28-0.21,0.42-0.49,0.42-0.85
			c0-0.36-0.15-0.64-0.44-0.85c-0.3-0.21-0.88-0.42-1.75-0.64c-1.38-0.33-2.4-0.76-3.04-1.28c-0.64-0.53-0.96-1.35-0.96-2.48
			c0-1.13,0.4-2,1.22-2.61c0.81-0.61,1.82-0.92,3.03-0.92c0.79,0,1.59,0.14,2.38,0.41s1.48,0.66,2.07,1.16l-1.34,1.94
			c-1.03-0.78-2.1-1.17-3.2-1.17C204.83,506.07,204.49,506.17,204.23,506.38"/>
		<path class="st1" d="M221.39,509.89c0-1.06-0.34-1.96-1.02-2.71c-0.68-0.75-1.52-1.12-2.51-1.12c-0.99,0-1.83,0.37-2.51,1.12
			c-0.68,0.75-1.02,1.65-1.02,2.71s0.34,1.96,1.02,2.7c0.68,0.74,1.52,1.11,2.51,1.11c0.99,0,1.83-0.37,2.51-1.11
			C221.05,511.85,221.39,510.95,221.39,509.89 M222.29,514.25c-1.2,1.17-2.68,1.76-4.44,1.76c-1.76,0-3.24-0.59-4.44-1.76
			c-1.2-1.17-1.8-2.63-1.8-4.38c0-1.74,0.6-3.2,1.8-4.38s2.68-1.76,4.44-1.76c1.76,0,3.24,0.59,4.44,1.76
			c1.2,1.17,1.8,2.63,1.8,4.38C224.1,511.62,223.49,513.08,222.29,514.25"/>
	</g>
	<polygon class="st1" points="234.65,504.01 237.3,504.01 237.3,515.9 234.65,515.9 228.99,508.45 228.99,515.9 226.34,515.9 
		226.34,504.01 228.82,504.01 234.65,511.66 	"/>
	<polygon class="st1" points="248.54,504.01 251.19,504.01 251.19,515.9 248.54,515.9 242.88,508.45 242.88,515.9 240.23,515.9 
		240.23,504.01 242.71,504.01 248.54,511.66 	"/>
	<polygon class="st1" points="262.68,504.01 262.68,506.38 256.77,506.38 256.77,508.82 262.09,508.82 262.09,511.08 256.77,511.08 
		256.77,513.55 262.87,513.55 262.87,515.9 254.12,515.9 254.12,504.01 	"/>
	<polygon class="st1" points="265.23,515.9 265.23,504.01 267.89,504.01 267.89,513.53 272.95,513.53 272.95,515.9 	"/>
	<g>
		<path class="st1" d="M95.75,594.32c-0.25,0.21-0.38,0.49-0.38,0.83c0,0.35,0.16,0.62,0.47,0.82c0.31,0.2,1.03,0.45,2.16,0.72
			c1.13,0.28,2,0.69,2.63,1.25c0.62,0.56,0.93,1.36,0.93,2.43c0,1.07-0.4,1.93-1.2,2.59c-0.8,0.66-1.85,0.99-3.15,0.99
			c-1.88,0-3.58-0.7-5.08-2.09l1.58-1.94c1.28,1.12,2.47,1.68,3.55,1.68c0.49,0,0.87-0.11,1.15-0.32c0.28-0.21,0.42-0.49,0.42-0.85
			c0-0.36-0.15-0.64-0.44-0.85c-0.29-0.21-0.88-0.42-1.75-0.64c-1.38-0.33-2.4-0.76-3.04-1.28c-0.64-0.53-0.96-1.35-0.96-2.48
			c0-1.13,0.41-2,1.22-2.61c0.81-0.61,1.82-0.92,3.03-0.92c0.79,0,1.59,0.14,2.38,0.41c0.79,0.27,1.48,0.66,2.07,1.16l-1.34,1.94
			c-1.03-0.78-2.1-1.17-3.2-1.17C96.36,594,96.01,594.11,95.75,594.32"/>
		<path class="st1" d="M106.96,600.76c0.44,0.55,1.04,0.82,1.78,0.82s1.34-0.27,1.78-0.82c0.43-0.55,0.65-1.3,0.65-2.25v-6.56h2.65
			v6.65c0,1.72-0.47,3.05-1.43,3.97c-0.95,0.92-2.17,1.39-3.65,1.39c-1.48,0-2.71-0.47-3.66-1.4c-0.96-0.93-1.44-2.25-1.44-3.96
			v-6.65h2.65v6.56C106.3,599.46,106.52,600.21,106.96,600.76"/>
		<path class="st1" d="M123.03,597.3c0.33-0.29,0.49-0.76,0.49-1.4s-0.17-1.08-0.51-1.32c-0.34-0.24-0.93-0.36-1.78-0.36h-1.99v3.52
			h1.94C122.08,597.74,122.7,597.59,123.03,597.3 M126.22,595.89c0,1.9-0.75,3.14-2.26,3.69l3.01,4.25h-3.26l-2.63-3.79h-1.84v3.79
			h-2.65v-11.88h4.5c1.85,0,3.17,0.31,3.95,0.93C125.83,593.5,126.22,594.51,126.22,595.89"/>
	</g>
	<polygon class="st1" points="137.1,591.95 137.1,594.27 131.6,594.27 131.6,596.84 136.83,596.84 136.83,599.17 131.6,599.17 
		131.6,603.83 128.94,603.83 128.94,591.95 	"/>
	<path class="st1" d="M143.58,595.48l-1.5,3.45h2.98L143.58,595.48z M147.17,603.83l-1.1-2.57h-4.98l-1.1,2.57h-2.82l5.13-11.88
		h2.57l5.13,11.88H147.17z"/>
	<g>
		<path class="st1" d="M156.83,601.48c1.3,0,2.37-0.52,3.2-1.55l1.7,1.75c-1.35,1.52-2.94,2.28-4.77,2.28
			c-1.83,0-3.34-0.58-4.52-1.73c-1.18-1.16-1.78-2.61-1.78-4.38c0-1.76,0.6-3.23,1.81-4.41c1.21-1.18,2.68-1.77,4.43-1.77
			c1.95,0,3.58,0.74,4.9,2.23l-1.65,1.87c-0.84-1.04-1.88-1.56-3.13-1.56c-1,0-1.85,0.33-2.56,0.98c-0.71,0.65-1.06,1.53-1.06,2.64
			c0,1.1,0.33,1.99,1,2.66C155.06,601.15,155.87,601.48,156.83,601.48"/>
	</g>
	<polygon class="st1" points="172.38,591.95 172.38,594.31 166.46,594.31 166.46,596.76 171.78,596.76 171.78,599.02 166.46,599.02 
		166.46,601.48 172.57,601.48 172.57,603.83 163.81,603.83 163.81,591.95 	"/>
	<path class="st1" d="M184.3,595.48l-1.5,3.45h2.98L184.3,595.48z M187.88,603.83l-1.1-2.57h-4.98l-1.1,2.57h-2.82l5.13-11.88h2.57
		l5.13,11.88H187.88z"/>
	<g>
		<path class="st1" d="M199.8,597.78h2.67v4.22c-1.18,1.31-2.81,1.97-4.9,1.97c-1.74,0-3.21-0.58-4.39-1.73
			c-1.19-1.16-1.78-2.61-1.78-4.38c0-1.76,0.6-3.23,1.81-4.41s2.66-1.77,4.37-1.77c1.71,0,3.19,0.56,4.45,1.68l-1.38,1.99
			c-0.53-0.46-1.02-0.78-1.47-0.96c-0.45-0.17-0.93-0.26-1.45-0.26c-1.01,0-1.86,0.34-2.55,1.03c-0.69,0.69-1.04,1.59-1.04,2.71
			c0,1.12,0.33,2.02,1,2.69c0.66,0.67,1.45,1.01,2.37,1.01s1.68-0.18,2.3-0.53V597.78z"/>
		<path class="st1" d="M211.28,597.3c0.33-0.29,0.49-0.76,0.49-1.4s-0.17-1.08-0.51-1.32c-0.34-0.24-0.93-0.36-1.78-0.36h-1.99v3.52
			h1.94C210.33,597.74,210.95,597.59,211.28,597.3 M214.47,595.89c0,1.9-0.75,3.14-2.26,3.69l3.01,4.25h-3.26l-2.63-3.79h-1.84v3.79
			h-2.65v-11.88h4.51c1.85,0,3.16,0.31,3.95,0.93C214.08,593.5,214.47,594.51,214.47,595.89"/>
	</g>
	<rect x="217.19" y="591.95" class="st1" width="2.65" height="11.88"/>
	<g>
		<path class="st1" d="M228.23,601.48c1.3,0,2.37-0.52,3.2-1.55l1.7,1.75c-1.35,1.52-2.94,2.28-4.77,2.28
			c-1.83,0-3.34-0.58-4.52-1.73c-1.18-1.16-1.78-2.61-1.78-4.38c0-1.76,0.6-3.23,1.81-4.41c1.21-1.18,2.68-1.77,4.43-1.77
			c1.95,0,3.58,0.74,4.9,2.23l-1.65,1.87c-0.84-1.04-1.88-1.56-3.13-1.56c-1,0-1.85,0.33-2.56,0.98c-0.71,0.65-1.06,1.53-1.06,2.64
			c0,1.1,0.33,1.99,1,2.66C226.46,601.15,227.27,601.48,228.23,601.48"/>
		<path class="st1" d="M244.05,597.82c0-1.06-0.34-1.96-1.02-2.71c-0.68-0.75-1.52-1.12-2.51-1.12c-0.99,0-1.83,0.37-2.51,1.12
			c-0.68,0.75-1.02,1.65-1.02,2.71s0.34,1.96,1.02,2.7c0.68,0.74,1.52,1.11,2.51,1.11c0.99,0,1.83-0.37,2.51-1.11
			C243.71,599.78,244.05,598.88,244.05,597.82 M244.95,602.19c-1.2,1.17-2.68,1.76-4.44,1.76c-1.76,0-3.24-0.59-4.44-1.76
			c-1.2-1.17-1.8-2.63-1.8-4.38s0.6-3.21,1.8-4.38c1.2-1.17,2.68-1.76,4.44-1.76c1.76,0,3.24,0.59,4.44,1.76
			c1.2,1.17,1.8,2.63,1.8,4.38S246.15,601.01,244.95,602.19"/>
	</g>
	<polygon class="st1" points="249,603.83 249,591.94 251.65,591.94 251.65,601.46 256.72,601.46 256.72,603.83 	"/>
	<polygon class="st1" points="267.22,591.95 267.22,594.31 261.31,594.31 261.31,596.76 266.63,596.76 266.63,599.02 261.31,599.02 
		261.31,601.48 267.41,601.48 267.41,603.83 258.66,603.83 258.66,591.95 	"/>
	<g>
		<path class="st1" d="M100.11,688.5c0.65-0.61,0.98-1.5,0.98-2.67c0-1.17-0.33-2.07-0.98-2.7c-0.65-0.63-1.65-0.94-3-0.94h-1.48
			v7.22h1.68C98.52,689.41,99.45,689.11,100.11,688.5 M102.05,681.43c1.13,1.04,1.7,2.48,1.7,4.33c0,1.85-0.55,3.31-1.66,4.39
			c-1.1,1.08-2.79,1.61-5.06,1.61h-4.06v-11.88h4.2C99.29,679.88,100.92,680.4,102.05,681.43"/>
	</g>
	<polygon class="st1" points="114.62,679.88 114.62,682.24 108.7,682.24 108.7,684.69 114.02,684.69 114.02,686.95 108.7,686.95 
		108.7,689.41 114.8,689.41 114.8,691.76 106.05,691.76 106.05,679.88 	"/>
	<polygon class="st1" points="125.48,679.88 128.13,679.88 128.13,691.76 125.48,691.76 119.82,684.31 119.82,691.76 117.17,691.76 
		117.17,679.88 119.65,679.88 125.48,687.53 	"/>
	<g>
		<path class="st1" d="M133.83,682.25c-0.26,0.21-0.38,0.49-0.38,0.83s0.15,0.62,0.47,0.83c0.31,0.2,1.03,0.45,2.16,0.72
			c1.13,0.28,2,0.69,2.63,1.25c0.62,0.56,0.93,1.36,0.93,2.43c0,1.07-0.4,1.93-1.2,2.59c-0.8,0.66-1.85,0.99-3.15,0.99
			c-1.88,0-3.58-0.7-5.08-2.09l1.58-1.94c1.28,1.12,2.47,1.68,3.55,1.68c0.49,0,0.87-0.1,1.15-0.32c0.28-0.21,0.42-0.49,0.42-0.85
			c0-0.36-0.15-0.64-0.44-0.85c-0.3-0.21-0.88-0.42-1.75-0.64c-1.38-0.33-2.4-0.76-3.04-1.28c-0.64-0.53-0.96-1.35-0.96-2.48
			c0-1.13,0.4-2,1.22-2.61c0.81-0.61,1.82-0.92,3.03-0.92c0.79,0,1.59,0.14,2.38,0.41c0.79,0.27,1.48,0.66,2.07,1.16l-1.34,1.94
			c-1.03-0.78-2.1-1.17-3.2-1.17C134.44,681.93,134.09,682.04,133.83,682.25"/>
	</g>
	<rect x="141.9" y="679.88" class="st1" width="2.65" height="11.88"/>
	<polygon class="st1" points="152.51,682.17 152.51,691.76 149.86,691.76 149.86,682.17 146.49,682.17 146.49,679.88 155.87,679.88 
		155.87,682.17 	"/>
	<path class="st1" d="M163.07,678.65h-2.43l2.16-3.01l2.64,1.1L163.07,678.65z M166.38,679.88v2.36h-5.92v2.45h5.32v2.26h-5.32v2.46
		h6.1v2.35h-8.75v-11.88H166.38z"/>
	<g>
		<path class="st1" d="M180.55,688.5c0.65-0.61,0.98-1.5,0.98-2.67c0-1.17-0.33-2.07-0.98-2.7c-0.65-0.63-1.65-0.94-3-0.94h-1.48
			v7.22h1.68C178.97,689.41,179.9,689.11,180.55,688.5 M182.5,681.43c1.13,1.04,1.7,2.48,1.7,4.33c0,1.85-0.55,3.31-1.66,4.39
			c-1.1,1.08-2.79,1.61-5.06,1.61h-4.06v-11.88h4.2C179.74,679.88,181.36,680.4,182.5,681.43"/>
	</g>
	<polygon class="st1" points="195.06,679.88 195.06,682.24 189.14,682.24 189.14,684.69 194.46,684.69 194.46,686.95 189.14,686.95 
		189.14,689.41 195.25,689.41 195.25,691.76 186.49,691.76 186.49,679.88 	"/>
	<g>
		<path class="st1" d="M200.39,682.25c-0.26,0.21-0.38,0.49-0.38,0.83s0.15,0.62,0.47,0.83c0.31,0.2,1.03,0.45,2.16,0.72
			c1.13,0.28,2,0.69,2.63,1.25c0.62,0.56,0.94,1.36,0.94,2.43c0,1.07-0.4,1.93-1.2,2.59c-0.8,0.66-1.85,0.99-3.15,0.99
			c-1.88,0-3.58-0.7-5.08-2.09l1.58-1.94c1.28,1.12,2.46,1.68,3.55,1.68c0.49,0,0.87-0.1,1.15-0.32c0.28-0.21,0.42-0.49,0.42-0.85
			c0-0.36-0.15-0.64-0.44-0.85c-0.3-0.21-0.88-0.42-1.75-0.64c-1.38-0.33-2.4-0.76-3.04-1.28c-0.64-0.53-0.96-1.35-0.96-2.48
			c0-1.13,0.4-2,1.22-2.61c0.81-0.61,1.82-0.92,3.03-0.92c0.79,0,1.59,0.14,2.38,0.41c0.79,0.27,1.48,0.66,2.07,1.16l-1.34,1.94
			c-1.03-0.78-2.1-1.17-3.2-1.17C200.99,681.93,200.64,682.04,200.39,682.25"/>
		<path class="st1" d="M215.72,682.25c-0.26,0.21-0.38,0.49-0.38,0.83s0.15,0.62,0.47,0.83c0.31,0.2,1.03,0.45,2.16,0.72
			c1.13,0.28,2,0.69,2.63,1.25c0.62,0.56,0.94,1.36,0.94,2.43c0,1.07-0.4,1.93-1.2,2.59c-0.8,0.66-1.85,0.99-3.15,0.99
			c-1.88,0-3.58-0.7-5.08-2.09l1.58-1.94c1.28,1.12,2.46,1.68,3.55,1.68c0.49,0,0.87-0.1,1.15-0.32c0.28-0.21,0.42-0.49,0.42-0.85
			c0-0.36-0.15-0.64-0.44-0.85c-0.3-0.21-0.88-0.42-1.75-0.64c-1.38-0.33-2.4-0.76-3.04-1.28c-0.64-0.53-0.96-1.35-0.96-2.48
			c0-1.13,0.4-2,1.22-2.61c0.81-0.61,1.82-0.92,3.03-0.92c0.79,0,1.59,0.14,2.38,0.41c0.79,0.27,1.48,0.66,2.07,1.16l-1.34,1.94
			c-1.03-0.78-2.1-1.17-3.2-1.17C216.33,681.93,215.98,682.04,215.72,682.25"/>
	</g>
	<polygon class="st1" points="232.36,679.88 232.36,682.24 226.44,682.24 226.44,684.69 231.76,684.69 231.76,686.95 226.44,686.95 
		226.44,689.41 232.54,689.41 232.54,691.76 223.79,691.76 223.79,679.88 	"/>
	<g>
		<path class="st1" d="M241.35,685.23c0.33-0.29,0.49-0.76,0.49-1.4c0-0.64-0.17-1.08-0.51-1.32c-0.34-0.24-0.93-0.36-1.78-0.36
			h-1.99v3.52h1.94C240.4,685.67,241.02,685.53,241.35,685.23 M244.55,683.82c0,1.9-0.75,3.14-2.26,3.69l3.01,4.25h-3.26l-2.63-3.79
			h-1.84v3.79h-2.65v-11.88h4.51c1.85,0,3.16,0.31,3.95,0.93C244.15,681.44,244.55,682.44,244.55,683.82"/>
	</g>
	<polygon class="st1" points="251.43,687.44 254.46,679.88 257.33,679.88 252.55,691.76 250.31,691.76 245.53,679.88 248.41,679.88 
			"/>
	<rect x="258.74" y="679.88" class="st1" width="2.65" height="11.88"/>
	<g>
		<path class="st1" d="M269.77,689.41c1.3,0,2.37-0.52,3.2-1.55l1.7,1.75c-1.35,1.52-2.94,2.28-4.77,2.28
			c-1.83,0-3.34-0.58-4.52-1.73c-1.18-1.16-1.78-2.61-1.78-4.38c0-1.76,0.6-3.23,1.81-4.41c1.21-1.18,2.68-1.77,4.43-1.77
			c1.95,0,3.58,0.74,4.9,2.23l-1.65,1.87c-0.84-1.04-1.88-1.56-3.13-1.56c-1,0-1.85,0.33-2.56,0.98c-0.71,0.65-1.06,1.53-1.06,2.64
			s0.33,1.99,1,2.66C268.01,689.08,268.82,689.41,269.77,689.41"/>
	</g>
	<polygon class="st1" points="285.33,679.88 285.33,682.24 279.41,682.24 279.41,684.69 284.73,684.69 284.73,686.95 279.41,686.95 
		279.41,689.41 285.52,689.41 285.52,691.76 276.76,691.76 276.76,679.88 	"/>
	<g>
		<path class="st1" d="M290.66,682.25c-0.26,0.21-0.38,0.49-0.38,0.83s0.15,0.62,0.47,0.83c0.31,0.2,1.03,0.45,2.16,0.72
			c1.13,0.28,2,0.69,2.63,1.25c0.62,0.56,0.94,1.36,0.94,2.43c0,1.07-0.4,1.93-1.2,2.59c-0.8,0.66-1.85,0.99-3.15,0.99
			c-1.88,0-3.58-0.7-5.08-2.09l1.58-1.94c1.28,1.12,2.46,1.68,3.55,1.68c0.49,0,0.87-0.1,1.15-0.32c0.28-0.21,0.42-0.49,0.42-0.85
			c0-0.36-0.15-0.64-0.44-0.85c-0.29-0.21-0.88-0.42-1.75-0.64c-1.38-0.33-2.4-0.76-3.04-1.28c-0.64-0.53-0.96-1.35-0.96-2.48
			c0-1.13,0.4-2,1.22-2.61c0.81-0.61,1.82-0.92,3.03-0.92c0.79,0,1.59,0.14,2.38,0.41c0.79,0.27,1.48,0.66,2.07,1.16l-1.34,1.94
			c-1.03-0.78-2.1-1.17-3.2-1.17C291.26,681.93,290.91,682.04,290.66,682.25"/>
	</g>
	<path class="st1" d="M635.37,249.07H499.46v-47.51h135.91V249.07z M505.46,243.07h123.91v-35.51H505.46V243.07z"/>
	<g>
		<path class="st1" d="M989.99,748.26h-952v-728h952V748.26z M43.99,742.26h940v-716h-940V742.26z"/>
	</g>
	<path class="st1" d="M989.99,306.26h-316v-63h316V306.26z M679.99,300.26h304v-51h-304V300.26z"/>
	<g>
		<path class="st1" d="M989.99,748.26h-316v-505h316V748.26z M679.99,742.26h304v-493h-304V742.26z"/>
	</g>
	<path class="st1" d="M715.32,285.14c2.3,0,4.18-0.91,5.64-2.73l3,3.09c-2.38,2.68-5.19,4.02-8.42,4.02c-3.23,0-5.89-1.02-7.98-3.06
		s-3.13-4.62-3.13-7.72c0-3.11,1.06-5.71,3.19-7.79c2.13-2.08,4.74-3.12,7.82-3.12c3.44,0,6.32,1.31,8.64,3.93l-2.91,3.3
		c-1.48-1.84-3.32-2.76-5.52-2.76c-1.76,0-3.27,0.58-4.51,1.73c-1.25,1.15-1.88,2.7-1.88,4.65s0.59,3.52,1.77,4.7
		C712.21,284.55,713.64,285.14,715.32,285.14z"/>
	<path class="st1" d="M744.84,286.38c-2.12,2.07-4.73,3.11-7.83,3.11c-3.1,0-5.71-1.04-7.83-3.11c-2.12-2.07-3.18-4.64-3.18-7.72
		s1.06-5.66,3.18-7.73c2.12-2.07,4.73-3.1,7.83-3.1c3.1,0,5.71,1.04,7.83,3.1c2.12,2.07,3.18,4.65,3.18,7.73
		S746.96,284.31,744.84,286.38z M743.25,278.67c0-1.87-0.6-3.46-1.8-4.79c-1.2-1.32-2.68-1.98-4.43-1.98s-3.22,0.66-4.42,1.98
		c-1.2,1.32-1.8,2.92-1.8,4.79c0,1.87,0.6,3.46,1.8,4.77c1.2,1.31,2.67,1.96,4.42,1.96s3.22-0.66,4.43-1.96
		C742.65,282.13,743.25,280.54,743.25,278.67z"/>
	<path class="st1" d="M766.65,268.31h4.68v20.97h-4.68l-9.99-13.14v13.14h-4.68v-20.97h4.38l10.29,13.5V268.31z"/>
	<path class="st1" d="M781.4,272.49c-0.45,0.37-0.68,0.86-0.68,1.47c0,0.61,0.28,1.09,0.83,1.46c0.55,0.36,1.82,0.79,3.81,1.28
		c1.99,0.49,3.53,1.22,4.63,2.21c1.1,0.98,1.65,2.41,1.65,4.29s-0.71,3.4-2.12,4.57s-3.27,1.76-5.57,1.76
		c-3.32,0-6.31-1.23-8.97-3.69l2.79-3.42c2.26,1.98,4.35,2.97,6.27,2.97c0.86,0,1.54-0.18,2.03-0.55s0.74-0.87,0.74-1.5
		s-0.26-1.13-0.78-1.5s-1.55-0.75-3.09-1.12c-2.44-0.58-4.22-1.33-5.36-2.27c-1.13-0.93-1.69-2.39-1.69-4.38
		c0-1.99,0.71-3.52,2.14-4.6s3.21-1.62,5.36-1.62c1.4,0,2.8,0.24,4.2,0.72c1.4,0.48,2.62,1.16,3.66,2.04l-2.37,3.42
		c-1.82-1.38-3.7-2.07-5.64-2.07C782.46,271.94,781.85,272.12,781.4,272.49z"/>
	<path class="st1" d="M810.75,268.31v4.17h-10.44v4.32h9.39v3.99h-9.39v4.35h10.77v4.14h-15.45v-20.97H810.75z M804.9,266.15h-4.29
		l3.81-5.31l4.65,1.95L804.9,266.15z"/>
	<path class="st1" d="M836.07,278.66c0,2.18-0.56,4.14-1.67,5.88s-2.61,3.04-4.48,3.9c0.18,0.3,0.46,0.55,0.86,0.76
		c0.39,0.21,0.79,0.32,1.21,0.32s0.83-0.07,1.23-0.2s0.72-0.29,0.96-0.46c0.52-0.42,0.89-0.83,1.11-1.23l2.43,2.91
		c-1.72,1.82-3.87,2.73-6.45,2.73c-1.2,0-2.38-0.33-3.54-0.99s-2.05-1.59-2.67-2.79c-3.1,0-5.71-1.04-7.83-3.11
		c-2.12-2.07-3.18-4.64-3.18-7.72s1.06-5.66,3.18-7.73c2.12-2.07,4.73-3.1,7.83-3.1c3.1,0,5.71,1.04,7.83,3.1
		C835.01,273,836.07,275.58,836.07,278.66z M831.3,278.67c0-1.87-0.6-3.46-1.8-4.79c-1.2-1.32-2.68-1.98-4.43-1.98
		s-3.22,0.66-4.42,1.98c-1.2,1.32-1.8,2.92-1.8,4.79c0,1.87,0.6,3.46,1.8,4.77c1.2,1.31,2.67,1.96,4.42,1.96s3.22-0.66,4.43-1.96
		C830.7,282.13,831.3,280.54,831.3,278.67z"/>
	<path class="st1" d="M845.61,283.86c0.78,0.97,1.83,1.46,3.15,1.46c1.32,0,2.36-0.49,3.13-1.46c0.77-0.97,1.15-2.29,1.15-3.98
		v-11.58h4.68v11.73c0,3.04-0.84,5.38-2.52,7c-1.68,1.63-3.83,2.45-6.45,2.45c-2.62,0-4.78-0.82-6.46-2.46
		c-1.69-1.64-2.54-3.97-2.54-6.99v-11.73h4.68v11.58C844.44,281.57,844.83,282.89,845.61,283.86z"/>
	<path class="st1" d="M877.71,268.31v4.17h-10.44v4.32h9.39v3.99h-9.39v4.35h10.77v4.14h-15.45v-20.97H877.71z"/>
	<path class="st1" d="M896.88,268.31h4.68v20.97h-4.68l-9.99-13.14v13.14h-4.68v-20.97h4.38l10.29,13.5V268.31z"/>
	<path class="st1" d="M916.35,285.14c2.3,0,4.18-0.91,5.64-2.73l3,3.09c-2.38,2.68-5.19,4.02-8.42,4.02c-3.23,0-5.89-1.02-7.98-3.06
		s-3.13-4.62-3.13-7.72c0-3.11,1.06-5.71,3.19-7.79c2.13-2.08,4.74-3.12,7.82-3.12c3.44,0,6.32,1.31,8.64,3.93l-2.91,3.3
		c-1.48-1.84-3.32-2.76-5.52-2.76c-1.76,0-3.27,0.58-4.51,1.73c-1.25,1.15-1.88,2.7-1.88,4.65s0.59,3.52,1.77,4.7
		C913.24,284.55,914.67,285.14,916.35,285.14z"/>
	<path class="st1" d="M943.8,268.31v4.17h-10.44v4.32h9.39v3.99h-9.39v4.35h10.77v4.14h-15.45v-20.97H943.8z"/>
	<path class="st1" d="M953.21,272.49c-0.45,0.37-0.68,0.86-0.68,1.47c0,0.61,0.28,1.09,0.83,1.46c0.55,0.36,1.82,0.79,3.81,1.28
		c1.99,0.49,3.53,1.22,4.63,2.21c1.1,0.98,1.65,2.41,1.65,4.29s-0.71,3.4-2.12,4.57s-3.27,1.76-5.57,1.76
		c-3.32,0-6.31-1.23-8.97-3.69l2.79-3.42c2.26,1.98,4.35,2.97,6.27,2.97c0.86,0,1.54-0.18,2.03-0.55s0.74-0.87,0.74-1.5
		s-0.26-1.13-0.78-1.5s-1.55-0.75-3.09-1.12c-2.44-0.58-4.22-1.33-5.36-2.27c-1.13-0.93-1.69-2.39-1.69-4.38
		c0-1.99,0.71-3.52,2.14-4.6s3.21-1.62,5.36-1.62c1.4,0,2.8,0.24,4.2,0.72c1.4,0.48,2.62,1.16,3.66,2.04l-2.37,3.42
		c-1.82-1.38-3.7-2.07-5.64-2.07C954.27,271.94,953.66,272.12,953.21,272.49z"/>
	<path class="st1" d="M635.37,207.56H499.46V57.41h135.91V207.56z M505.46,201.56h123.91V63.41H505.46V201.56z"/>
	<path class="st1" d="M340.38,359.37H73.99v-47.51h266.39V359.37z M79.99,353.37h254.39v-35.51H79.99V353.37z"/>
	<path class="st1" d="M635.26,359.37H334.38v-47.51h300.89V359.37z M340.38,353.37h288.89v-35.51H340.38V353.37z"/>
	<path class="st1" d="M484.9,347.75c-6.86,0-12.44-5.58-12.44-12.44c0-6.86,5.58-12.44,12.44-12.44c6.86,0,12.44,5.58,12.44,12.44
		C497.33,342.17,491.76,347.75,484.9,347.75z M484.9,328.87c-3.55,0-6.44,2.89-6.44,6.44c0,3.55,2.89,6.44,6.44,6.44
		c3.55,0,6.44-2.89,6.44-6.44C491.33,331.76,488.45,328.87,484.9,328.87z"/>
	<path class="st1" d="M431.82,347.75c-6.86,0-12.44-5.58-12.44-12.44c0-6.86,5.58-12.44,12.44-12.44c6.86,0,12.44,5.58,12.44,12.44
		C444.26,342.17,438.68,347.75,431.82,347.75z M431.82,328.87c-3.55,0-6.44,2.89-6.44,6.44c0,3.55,2.89,6.44,6.44,6.44
		c3.55,0,6.44-2.89,6.44-6.44C438.26,331.76,435.37,328.87,431.82,328.87z"/>
	<path class="st1" d="M378.74,347.75c-6.86,0-12.44-5.58-12.44-12.44c0-6.86,5.58-12.44,12.44-12.44s12.44,5.58,12.44,12.44
		C391.18,342.17,385.6,347.75,378.74,347.75z M378.74,328.87c-3.55,0-6.44,2.89-6.44,6.44c0,3.55,2.89,6.44,6.44,6.44
		s6.44-2.89,6.44-6.44C385.18,331.76,382.29,328.87,378.74,328.87z"/>
</g>
</svg>
